<svg id="Layer_1" data-name="Layer 1" xmlns="http://www.w3.org/2000/svg" viewBox="0 0 205.24 51.46"><defs><style>.cls-1{fill:#fff;}</style></defs><title>logo</title><path class="cls-1" d="M36,24.53a16.12,16.12,0,0,1-6.28,5.69,24.11,24.11,0,0,1-9.81,2.6L17.76,44.64q-1.23,6.82-6.67,6.82a9.4,9.4,0,0,1-5.52-1.77A12,12,0,0,1,1.52,44.3,23.23,23.23,0,0,1,0,35.37q0-10,3.21-16.9a23.64,23.64,0,0,1,8.64-10.4A21.7,21.7,0,0,1,23.79,4.61a17.3,17.3,0,0,1,7.83,1.62,11.41,11.41,0,0,1,4.85,4.39,12,12,0,0,1,1.65,6.25A14.23,14.23,0,0,1,36,24.53Zm-5.15-7.21A7,7,0,0,0,28.67,12q-2.13-2-6.6-2a13.19,13.19,0,0,0-8.8,3.18,20.4,20.4,0,0,0-5.79,8.86A38.06,38.06,0,0,0,5.45,35a21.44,21.44,0,0,0,.61,5.39A10.82,10.82,0,0,0,7.63,44c.64.86,1.25,1.3,1.84,1.3.81,0,1.44-1.13,1.86-3.39L13,32.67a16.27,16.27,0,0,0-1.67-.24,2.78,2.78,0,0,1-1.91-.91,3,3,0,0,1-.44-1.7,2.36,2.36,0,0,1,.61-1.71,2.22,2.22,0,0,1,1.69-.64,4.31,4.31,0,0,1,.74.05c.78.13,1.39.21,1.81.24q.65-3.82,1.82-10.25A3.43,3.43,0,0,1,17,15.13a4.35,4.35,0,0,1,2.48-.71,3.63,3.63,0,0,1,2.33.61A2.45,2.45,0,0,1,22.47,17a7.21,7.21,0,0,1-.1,1.28l-1.62,9.51Q30.8,26.49,30.81,17.32Z"/><path class="cls-1" d="M37.5,44.39a18.69,18.69,0,0,1-.76-6.28A39.89,39.89,0,0,1,38.56,26,3.7,3.7,0,0,1,40,23.91a5.11,5.11,0,0,1,2.82-.66,2.69,2.69,0,0,1,1.38.25,1,1,0,0,1,.39.93A18.08,18.08,0,0,1,43.85,28c-.32,1.31-.58,2.45-.78,3.43A34.5,34.5,0,0,0,42.58,35a27.72,27.72,0,0,1,3.63-6.87,14.17,14.17,0,0,1,3.95-3.78,7.21,7.21,0,0,1,3.55-1.13c2.13,0,3.19,1.07,3.19,3.19a23.21,23.21,0,0,1-.44,3.09A18.38,18.38,0,0,0,56.07,32c0,1.15.41,1.72,1.23,1.72s2.09-.72,3.53-2.16a1.88,1.88,0,0,1,1.32-.64,1.15,1.15,0,0,1,1,.57A2.71,2.71,0,0,1,63.53,33a3.94,3.94,0,0,1-1,2.85,13.05,13.05,0,0,1-3.21,2.43,8,8,0,0,1-3.9,1,5.43,5.43,0,0,1-4-1.32,4.79,4.79,0,0,1-1.35-3.58,7.33,7.33,0,0,1,.15-1.47c.07-.66.1-1.1.1-1.33q0-.78-.54-.78c-.49,0-1.14.55-1.94,1.64a23.51,23.51,0,0,0-2.38,4.34,35.86,35.86,0,0,0-1.91,5.69,7.73,7.73,0,0,1-1.25,3.12,2.83,2.83,0,0,1-2.23.81A2.69,2.69,0,0,1,37.5,44.39Z"/><path class="cls-1" d="M60.36,44.1a11,11,0,0,1-1.45-6,36.27,36.27,0,0,1,.57-5.66A53,53,0,0,1,60.92,26a4.18,4.18,0,0,1,1.18-2.16,3.8,3.8,0,0,1,2.36-.59c1.66,0,2.5.56,2.5,1.67A38.57,38.57,0,0,1,66,30.61a42,42,0,0,0-1.18,7.31,5.24,5.24,0,0,0,.39,2.26,1.36,1.36,0,0,0,1.33.78,3.69,3.69,0,0,0,2.2-1.23,43.48,43.48,0,0,0,3.54-3.87,1.71,1.71,0,0,1,1.32-.69,1.16,1.16,0,0,1,1,.59A3.09,3.09,0,0,1,75,37.38a4.51,4.51,0,0,1-.93,3Q69.21,46.36,65,46.36A5.12,5.12,0,0,1,60.36,44.1Zm1.94-25a3.47,3.47,0,0,1-1-2.68,3.63,3.63,0,0,1,1.35-2.87A5,5,0,0,1,66,12.36a4.68,4.68,0,0,1,2.94.88,3,3,0,0,1,1.13,2.51,4,4,0,0,1-1.28,3.11A4.84,4.84,0,0,1,65.39,20,4.4,4.4,0,0,1,62.3,19.06Z"/><path class="cls-1" d="M71.89,44.39a18.69,18.69,0,0,1-.76-6.28A39.88,39.88,0,0,1,72.94,26a3.76,3.76,0,0,1,1.45-2.09,5.11,5.11,0,0,1,2.82-.66,2.67,2.67,0,0,1,1.37.25,1,1,0,0,1,.4.93A18.92,18.92,0,0,1,78.24,28c-.33,1.31-.59,2.45-.78,3.43A34.5,34.5,0,0,0,77,35a27.07,27.07,0,0,1,3.63-6.87,14.15,14.15,0,0,1,3.94-3.78,7.24,7.24,0,0,1,3.56-1.13c2.13,0,3.19,1.07,3.19,3.19a39.42,39.42,0,0,1-1.08,6.92A34,34,0,0,0,89.28,39c0,1.31.47,2,1.42,2A3.85,3.85,0,0,0,93,39.76a39.62,39.62,0,0,0,3.61-3.9A1.71,1.71,0,0,1,98,35.17a1.15,1.15,0,0,1,1,.59,3.08,3.08,0,0,1,.37,1.62,4.51,4.51,0,0,1-.94,3,21.59,21.59,0,0,1-4.54,4.27,9.49,9.49,0,0,1-5.51,1.67,4.79,4.79,0,0,1-3.78-1.45,6.14,6.14,0,0,1-1.28-4.19A30.4,30.4,0,0,1,84,35.81a24.89,24.89,0,0,0,.64-4.27q0-.78-.54-.78c-.43,0-1,.55-1.79,1.64a26.23,26.23,0,0,0-2.36,4.34A34,34,0,0,0,78,42.43a7.57,7.57,0,0,1-1.26,3.12,2.8,2.8,0,0,1-2.23.81A2.69,2.69,0,0,1,71.89,44.39Z"/><path class="cls-1" d="M118.24,35.76a3,3,0,0,1,.37,1.62,4.51,4.51,0,0,1-.93,3,20.94,20.94,0,0,1-4.61,4.27,10.13,10.13,0,0,1-5.74,1.67q-10,0-10-14.08c0-1.44.05-2.9.15-4.37H95.56a2.76,2.76,0,0,1-2-.54,2.44,2.44,0,0,1-.51-1.72c0-1.83.73-2.74,2.2-2.74h2.8a46.89,46.89,0,0,1,2.55-9.86,22.19,22.19,0,0,1,4.14-7.11A7.06,7.06,0,0,1,110,3.29a3.68,3.68,0,0,1,3.24,1.81,8.26,8.26,0,0,1,1.17,4.56q0,7.61-6.37,13.25h5.49a1.56,1.56,0,0,1,1.13.34,1.82,1.82,0,0,1,.34,1.28q0,3.38-5.54,3.38h-6c-.06,1.64-.09,2.91-.09,3.83q0,5.1,1.2,7.16a4.09,4.09,0,0,0,3.8,2.06,5.8,5.8,0,0,0,3.73-1.28,28.9,28.9,0,0,0,3.82-3.82,1.74,1.74,0,0,1,1.33-.69A1.13,1.13,0,0,1,118.24,35.76ZM107,9.84a25.56,25.56,0,0,0-1.72,5.1,68,68,0,0,0-1.35,7.23,16.91,16.91,0,0,0,4.35-5.61,13.71,13.71,0,0,0,1.44-5.67c0-1.93-.36-2.89-1.08-2.89C108.16,8,107.62,8.61,107,9.84Z"/><path class="cls-1" d="M141.72,31.69a3.38,3.38,0,0,1,.34,1.62,4.17,4.17,0,0,1-.34,1.89,1.8,1.8,0,0,1-1.08.9,22.27,22.27,0,0,1-6.48,1.18,12.65,12.65,0,0,1-3.7,6.57,8.7,8.7,0,0,1-6,2.51c-3.3,0-5.71-1.26-7.21-3.78S115,36.42,115,31.64a67.3,67.3,0,0,1,1.57-13.76,43.29,43.29,0,0,1,4.59-12.66q3-5.22,7.19-5.22A4.27,4.27,0,0,1,132,1.94a8.51,8.51,0,0,1,1.37,5,22.29,22.29,0,0,1-1.52,8,31.63,31.63,0,0,1-5,8.34A7.36,7.36,0,0,1,132.1,26a11.21,11.21,0,0,1,2.46,6.11,29.66,29.66,0,0,0,5.49-1,2,2,0,0,1,.69-.1A1.07,1.07,0,0,1,141.72,31.69Zm-14.37,8.19a7,7,0,0,0,1.56-3.68,6.71,6.71,0,0,1-2.33-2.7,7.94,7.94,0,0,1-.8-3.53,11.84,11.84,0,0,1,.19-1.86h-.15a4,4,0,0,0-3.36,2,9.3,9.3,0,0,0-1.34,5.32,7.28,7.28,0,0,0,1,4.26,3,3,0,0,0,2.48,1.48A3.61,3.61,0,0,0,127.35,39.88Zm-2.29-32.1a46.17,46.17,0,0,0-2.13,7.92,98.75,98.75,0,0,0-1.47,10.94q3.24-5.94,5.17-10.48a20.75,20.75,0,0,0,1.94-8.07,6.09,6.09,0,0,0-.37-2.4c-.24-.56-.58-.83-1-.83C126.54,4.86,125.83,5.83,125.06,7.78Z"/><path class="cls-1" d="M139.24,44.32a8.79,8.79,0,0,1-1.4-5.08,43.62,43.62,0,0,1,.49-6.74A43.1,43.1,0,0,1,140,26a4.2,4.2,0,0,1,1.37-2.11,4.82,4.82,0,0,1,2.8-.64,2.5,2.5,0,0,1,1.5.34,1.27,1.27,0,0,1,.41,1,20.27,20.27,0,0,1-.54,2.64c-.32,1.21-.58,2.31-.78,3.29a46.78,46.78,0,0,0-1,6.87,3.16,3.16,0,0,0,.24,1.45.87.87,0,0,0,.79.41c.49,0,1.1-.49,1.84-1.47A21.8,21.8,0,0,0,149,33.36,58.18,58.18,0,0,0,151.38,26a3.87,3.87,0,0,1,1.2-2.11,3.85,3.85,0,0,1,2.43-.64,3.23,3.23,0,0,1,1.57.27,1.08,1.08,0,0,1,.44,1,48.41,48.41,0,0,1-1.22,6.72A54,54,0,0,0,154.42,39a2.31,2.31,0,0,0,.4,1.45,1.22,1.22,0,0,0,1,.51,3.84,3.84,0,0,0,2.34-1.2,39.79,39.79,0,0,0,3.6-3.9,1.73,1.73,0,0,1,1.33-.69,1.13,1.13,0,0,1,1,.59,3,3,0,0,1,.37,1.62,4.51,4.51,0,0,1-.93,3A21.83,21.83,0,0,1,159,44.69a9.54,9.54,0,0,1-5.52,1.67A3.77,3.77,0,0,1,150,44.54a9.91,9.91,0,0,1-1.1-5.1,11.62,11.62,0,0,1-2.5,5.13,4.91,4.91,0,0,1-3.58,1.79A4.21,4.21,0,0,1,139.24,44.32Z"/><path class="cls-1" d="M189.86,35.76a3,3,0,0,1,.37,1.62,4.51,4.51,0,0,1-.93,3,23.91,23.91,0,0,1-4.46,4.32,9,9,0,0,1-5.35,1.62,8.52,8.52,0,0,1-6.08-2.16,7.48,7.48,0,0,1-2.31-5.74,2.84,2.84,0,0,1,2-2.75,8.62,8.62,0,0,0,3.09-2,3.7,3.7,0,0,0,.94-2.57,2.09,2.09,0,0,0-.37-1.33,1.16,1.16,0,0,0-.91-.44c-.88,0-1.86.64-2.92,1.92a22,22,0,0,0-3,4.93,35.56,35.56,0,0,0-2.15,6.2,7.57,7.57,0,0,1-1.26,3.12,2.8,2.8,0,0,1-2.23.81,2.46,2.46,0,0,1-2.23-1.11,8.15,8.15,0,0,1-1-3.41q-.24-2.3-.24-6.77a84.93,84.93,0,0,1,1.54-15.74A47,47,0,0,1,167,5.57Q170,0,174.19,0a4.33,4.33,0,0,1,3.66,1.94,8.38,8.38,0,0,1,1.39,5,21.48,21.48,0,0,1-2.89,10.28,66.36,66.36,0,0,1-9.42,12.44q-.15,2.55-.15,5.25,2.35-6.13,5.4-8.91c2-1.84,3.92-2.77,5.69-2.77a5.06,5.06,0,0,1,3.95,1.67,5.94,5.94,0,0,1,1.5,4.12,9.29,9.29,0,0,1-1.38,5,11.66,11.66,0,0,1-4.71,4,3.25,3.25,0,0,0,1.2,2.13,3.77,3.77,0,0,0,2.43.81,4.56,4.56,0,0,0,2.95-1.18,32.21,32.21,0,0,0,3.72-3.92,1.74,1.74,0,0,1,1.33-.69A1.13,1.13,0,0,1,189.86,35.76ZM171.2,7.38a42.91,42.91,0,0,0-2.09,6.82,92.5,92.5,0,0,0-1.64,9.35,35.35,35.35,0,0,0,5-7.8,18.35,18.35,0,0,0,2-7.66,6.54,6.54,0,0,0-.35-2.4c-.23-.56-.55-.83-1-.83C172.57,4.86,171.92,5.7,171.2,7.38Z"/><path class="cls-1" d="M187.36,44.15a9.08,9.08,0,0,1-1.74-5.79,15.94,15.94,0,0,1,1.82-7.43,15.46,15.46,0,0,1,4.83-5.64,10.91,10.91,0,0,1,6.4-2.14,1.92,1.92,0,0,1,1.45.42,3.58,3.58,0,0,1,.61,1.5,10.07,10.07,0,0,1,2.06-.2,2.6,2.6,0,0,1,1.82.59,2.17,2.17,0,0,1,.63,1.67,26.16,26.16,0,0,1-.49,3.92c-.36,2-.63,3.9-.83,5.72a56.22,56.22,0,0,0-.29,6.1,3.83,3.83,0,0,1-.77,2.68,3.25,3.25,0,0,1-2.47.81,3.37,3.37,0,0,1-2.48-.81,3.62,3.62,0,0,1-.81-2.63l.05-.78q-1.52,4.22-5.25,4.22A5.53,5.53,0,0,1,187.36,44.15Zm9-4.66a22.77,22.77,0,0,0,2-6.82l.93-5a5.76,5.76,0,0,0-3.73,1.54,10.63,10.63,0,0,0-2.75,3.95,13.44,13.44,0,0,0-1,5.2,3.69,3.69,0,0,0,.57,2.23,1.75,1.75,0,0,0,1.49.76C194.73,41.4,195.56,40.76,196.32,39.49Z"/></svg>