<?xml version="1.0" encoding="UTF-8" standalone="no"?>
<!DOCTYPE svg PUBLIC "-//W3C//DTD SVG 1.1//EN" "http://www.w3.org/Graphics/SVG/1.1/DTD/svg11.dtd">
<svg width="100%" height="100%" viewBox="0 0 845 209" version="1.1" xmlns="http://www.w3.org/2000/svg" xmlns:xlink="http://www.w3.org/1999/xlink" xml:space="preserve" xmlns:serif="http://www.serif.com/" style="fill-rule:evenodd;clip-rule:evenodd;stroke-linejoin:round;stroke-miterlimit:2;">
    <g transform="matrix(1,0,0,1,-1376.000477,-25241.81221)">
        <g transform="matrix(1,0,0,1,11389.55033,-0.386114)">
            <g id="PRINTBUKA-LOGO.png" transform="matrix(0.826495,0,0,0.826495,-10014.436018,25241.244434)">
                <path d="M118.15,178.144C117.649,178.636 112.693,182.386 112.495,182.493C110.386,183.63 110.721,184.002 110.344,184.319C110.136,184.494 109.818,184.495 109.602,184.661C109.454,184.775 109.47,185.065 109.294,185.13C109.126,185.192 108.949,184.901 108.781,184.964C108.603,185.031 108.624,185.333 108.468,185.441C108.086,185.705 108.024,185.582 103.318,188.126C102.94,188.33 102.806,187.993 98.339,190.138C97.878,190.359 88.247,193.497 85.508,193.664C80.967,193.94 80.975,193.786 76.474,194.327C75.68,194.423 75.686,194.247 66.492,193.677C65.535,193.617 58.906,192.235 58.685,192.119C54.782,190.084 53.904,190.796 46.676,187.157C46.26,186.948 42.344,184.977 41.567,184.382C41.411,184.262 41.403,184.012 41.258,183.88C41.047,183.688 40.738,183.628 40.528,183.435C40.405,183.322 40.458,183.004 40.291,182.992C40.2,182.986 38.94,183.587 38.915,183.645C38.897,183.688 39.029,184.469 39.03,189.5C39.037,246.012 39.015,246.016 38.778,246.641C38.352,247.763 37.923,247.603 20.5,247.603C2.208,247.603 2.132,247.653 1.668,247.298C0.996,246.785 1.075,246.573 1.075,204.5C1.075,69.805 1.062,69.803 1.184,69.381C1.58,68.012 2.132,68.218 17.5,68.218C37.754,68.218 37.857,68.155 38.399,68.616C39.65,69.68 38.401,78.046 39.167,78.802C40.192,79.814 40.448,79.392 41.411,78.339C41.53,78.209 41.533,77.961 41.696,77.892C41.854,77.826 42.038,78.074 42.197,78.009C42.336,77.952 42.13,77.693 43.693,76.86C48.653,74.216 50.77,73.462 51.413,73.232C51.578,73.174 53.013,72.662 53.42,72.369C53.577,72.256 53.622,72.004 53.802,71.933C53.953,71.872 54.13,72.083 54.282,72.024C54.429,71.968 54.418,71.711 54.559,71.642C54.854,71.496 54.943,71.805 58.519,70.559C58.759,70.475 58.783,70.571 61.543,69.625C62.788,69.198 65.298,69.417 67.597,68.825C71.165,67.907 80.844,67.923 84.398,68.84C86.561,69.398 88.066,69.172 89.478,69.569C91.469,70.128 91.441,70.131 93.503,70.488C93.812,70.542 94.135,70.577 94.415,70.718C94.545,70.784 94.529,71.038 94.671,71.074C94.892,71.131 95.122,70.914 95.346,70.959C95.76,71.041 96.116,71.306 96.515,71.442C96.81,71.543 97.149,71.518 97.422,71.668C97.57,71.749 97.541,72.028 97.698,72.09C97.852,72.15 98.026,71.906 98.181,71.966C98.455,72.072 98.203,72.509 101.377,73.788C104.874,75.197 104.891,75.127 106.31,75.861C106.455,75.936 106.504,76.14 106.649,76.214C107.178,76.483 107.78,76.592 108.303,76.872C108.454,76.952 108.48,77.181 108.626,77.271C108.875,77.425 109.212,77.41 109.45,77.581C109.615,77.699 109.616,77.968 109.773,78.095C110.652,78.805 110.753,78.616 111.586,79.4C112.363,80.133 116.078,82.648 116.29,82.812C116.843,83.241 116.903,83.113 117.456,83.564C117.63,83.706 117.633,83.997 117.806,84.141C118.01,84.311 118.34,84.283 118.534,84.464C118.713,84.63 118.685,84.948 118.858,85.12C119.386,85.647 119.672,85.232 120.112,85.841C120.307,86.111 120.143,86.34 121.235,87.691C123.226,90.152 123.947,90.234 125.163,91.732C126.105,92.893 126.001,92.924 126.821,94.303C126.966,94.548 128.018,95.627 128.469,96.519C128.49,96.56 131.625,101.657 132.139,102.686C134.747,107.908 134.444,108.005 136.383,113.542C137.227,115.949 136.766,116.03 137.476,118.508C138.456,121.93 137.608,122.044 138.435,125.518C139.642,130.581 138.394,136.487 138.197,137.419C138.036,138.182 138.205,143.563 135.49,151.496C135.303,152.042 133.206,158.172 133.123,158.311C133.04,158.452 132.822,158.475 132.736,158.614C132.579,158.869 132.583,159.203 132.419,159.454C132.318,159.609 132.052,159.616 131.973,159.784C131.914,159.906 132.134,160.054 132.076,160.177C132.01,160.317 131.706,160.078 130.868,161.694C129.622,164.095 129.742,164.129 128.198,166.311C127.225,167.685 127.439,167.779 127.138,168.296C127.048,168.452 126.814,168.484 126.72,168.637C126.568,168.883 126.604,169.225 126.425,169.451C126.287,169.625 125.976,169.585 125.834,169.755C125.657,169.966 125.706,170.314 125.527,170.524C125.375,170.7 125.067,170.674 124.903,170.84C124.719,171.025 124.708,171.337 124.532,171.53C124.419,171.654 124.33,171.518 122.97,172.938C121.485,174.49 121.687,174.649 120.157,176.155C119.484,176.819 119.501,176.804 118.15,178.144L97.852,153.851C98.875,152.819 98.9,152.884 99.824,151.723C100.507,150.865 100.3,150.768 100.908,149.838C101.03,149.651 101.317,149.637 101.472,149.476C103.824,147.02 103.383,146.737 104.859,143.674C105.841,141.637 105.923,141.684 106.343,139.471C106.75,137.328 107.483,137.394 107.306,128.504C107.244,125.347 105.376,118.848 103.09,114.745C102.805,114.233 101.832,113.574 101.341,112.615C101.015,111.979 100.919,112.075 100.442,111.55C100.268,111.359 100.25,111.056 100.07,110.871C99.909,110.705 99.618,110.707 99.46,110.537C99.225,110.282 98.286,108.88 98.188,108.733C97.41,107.57 97.189,107.814 94.422,105.602C94.337,105.534 93.644,104.98 93.319,104.81C90.782,103.484 90.738,103.578 90.531,103.441C90.384,103.343 90.402,103.062 90.236,103C90.062,102.934 89.868,103.179 89.69,103.124C89.534,103.075 89.531,102.819 89.39,102.737C89.128,102.583 88.813,102.547 88.529,102.441C87.879,102.201 87.968,102.093 87.38,101.748C83.102,99.239 69.746,98.636 63.67,101.858C60.308,103.641 60.466,103.897 60.166,104.034C60.04,104.092 59.891,103.867 59.765,103.924C59.593,104.002 59.575,104.263 59.421,104.371C59.187,104.537 58.874,104.561 58.636,104.721C54.274,107.662 52.611,109.752 52.187,110.285C51.496,111.153 51.71,111.25 51.103,112.166C50.979,112.353 50.694,112.371 50.538,112.533C47.69,115.466 48.105,115.748 46.477,119.489C44.265,124.569 45.012,125.033 44.431,127.481C43.492,131.438 43.801,131.474 44.566,135.49C45.129,138.443 44.231,140.602 49.795,149.321C49.879,149.453 51.361,151.127 51.562,151.442C51.944,152.041 52.045,151.922 52.547,152.456C52.828,152.754 53.749,154.091 53.849,154.236C54.993,155.895 56.817,156.463 60.312,158.819C62.667,160.407 64.902,160.629 65.348,160.868C65.471,160.934 65.478,161.149 65.609,161.194C67.117,161.705 67.159,161.501 68.638,162.151C69.438,162.503 71.895,163.583 79.542,162.97C81.641,162.801 88.278,160.304 88.393,160.25C88.531,160.184 88.552,159.966 88.689,159.899C89.229,159.633 89.845,159.541 90.383,159.27C90.533,159.194 90.556,158.96 90.705,158.882C92.466,157.949 92.513,158.106 94.28,157.144C95.402,156.532 95.281,156.394 97.852,153.851L118.15,178.144Z" style="fill:rgb(0,174,238);fill-opacity:1;"/>
                <path d="M490.533,153.51C490.802,149.517 490.668,149.522 490.668,16.5C490.668,11.534 489.975,10.042 493.491,10.017C507.459,9.916 507.66,9.64 508.516,10.485C509.003,10.966 508.949,11.097 508.949,79.5C508.949,89.557 508.42,89.611 508.799,90.396C508.823,90.446 510.112,91.062 510.169,91.05C510.721,90.939 510.02,90.251 514.526,85.525C516.19,83.781 525.975,73.518 540.397,70.084C571.14,62.764 594.909,83.023 603.722,104.407C611.648,123.641 608.694,138.354 608.282,141.472C604.954,166.67 587.99,181.428 580.213,186.039C553.234,202.036 526.459,191.251 512.404,174.581C510.769,172.642 510.494,171.274 509.518,171.564C508.511,171.863 509.017,172.31 509.017,179.5C509.018,192.657 509.29,193.361 507.56,193.76C507.126,193.861 492.592,193.812 492.459,193.793C490.025,193.447 490.738,189.96 490.5,187.497C490.962,187.308 496.083,185.216 496.276,185.112C497.428,184.493 497.076,182.805 497.033,182.6C496.953,182.218 494.121,170.463 493.866,169.408C491.202,158.35 491.051,158.399 490.882,157.425C490.362,154.425 490.143,154.49 490.133,154.228C490.123,153.954 490.542,153.783 490.533,153.51L525.031,166.981C528.039,169.695 527.932,169.8 532.351,172.742C539.539,177.527 563.211,186.518 583.349,164.365C603.905,141.754 598.582,97.049 564.5,85.5C546.359,79.353 522.238,88.918 513.441,113.478C506.582,132.629 511.405,153.158 524.481,166.519C524.648,166.69 524.864,166.81 525.031,166.981L490.533,153.51Z" style="fill:rgb(26,26,26);fill-opacity:1;"/>
                <path d="M326.027,109.015C325.014,110.097 322.188,112.152 318.678,119.581C317.599,121.866 317.734,121.965 317.734,152.5C317.734,192.613 317.792,192.73 317.291,193.318C316.721,193.985 316.531,193.913 283.5,193.912C280.756,193.912 279.546,194.166 279.454,191.502C279.445,191.249 279.451,82.02 279.452,72.5C279.452,71.169 279.064,68.786 281.513,68.664C281.835,68.648 311.287,68.649 311.488,68.662C314.083,68.835 313.629,70.11 313.629,79.5C313.629,83.447 313.588,83.412 313.405,86.512C313.395,86.686 313.288,88.497 314.47,88.406C315.872,88.298 318.964,76.801 340.498,69.495C343.689,68.413 370.432,60.397 385.631,73.341C401.416,86.783 399.91,102.336 399.91,134.5C399.91,192.735 399.972,192.878 399.425,193.425C398.892,193.959 398.755,193.915 365.5,193.912C362.794,193.911 361.828,194.205 361.789,191.492C361.543,174.496 362.377,125.041 361.265,116.534C358.63,96.388 340.37,96.708 328.625,106.651C327.925,107.243 327.954,107.239 326.027,109.015Z" style="fill:rgb(26,26,26);fill-opacity:1;"/>
                <path d="M488.048,69.682C488.116,71.359 488.212,93.181 488.051,97.323C487.166,98.551 487.032,98.495 485.5,98.509C478.65,98.572 464.174,98.333 463.597,98.696C463.401,98.82 463.401,99.123 463.253,99.301C462.815,99.827 462.79,99.817 462.773,100.517C462.538,110.19 462.753,141.901 462.777,145.499C462.799,148.683 462.888,148.656 463.329,150.548C463.475,151.174 463.434,151.845 463.648,152.452C463.702,152.605 464.04,152.519 464.08,152.676C464.134,152.895 463.8,153.103 463.865,153.319C463.918,153.495 464.247,153.426 464.352,153.577C464.522,153.82 464.472,154.172 464.633,154.42C464.74,154.584 464.994,154.6 465.118,154.752C465.295,154.968 465.371,155.25 465.509,155.491C465.976,156.303 468.605,158.089 471.515,158.274C479.36,158.772 483.068,156.781 487.428,155.303C487.596,155.246 489.23,154.692 489.497,154.491C489.784,154.276 489.576,154.148 489.836,153.901C490.132,153.62 490.217,153.809 490.533,153.51C490.542,153.783 490.123,153.954 490.133,154.228C490.143,154.49 490.362,154.425 490.882,157.425C491.051,158.399 491.202,158.35 493.866,169.408C494.121,170.463 496.953,182.218 497.033,182.6C497.076,182.805 497.428,184.493 496.276,185.112C496.083,185.216 490.962,187.308 490.5,187.497C484.035,190.291 479.414,190.739 477.598,191.729C475.183,193.046 474.967,192.279 472.357,193.085C470.925,193.528 455.336,194.946 448.371,192.948C447.757,192.772 444.773,192.392 444.583,192.302C444.442,192.236 444.458,191.976 444.312,191.923C444.156,191.866 443.98,192.088 443.824,192.028C443.687,191.975 443.914,191.672 442.319,190.981C439.792,189.887 439.74,190.072 437.37,188.73C436.034,187.974 435.977,188.106 434.85,187.11C434.302,186.625 434.331,186.638 433.742,186.156C433.197,185.711 433.124,185.848 432.606,185.36C432.429,185.194 432.456,184.88 432.285,184.708C432.118,184.539 431.805,184.57 431.646,184.394C431.528,184.262 431.759,184.131 430.448,182.542C430.083,182.1 428.515,180.199 426.895,176.323C426.786,176.062 425.418,171.829 425.289,171.582C425.222,171.455 425.003,171.437 424.967,171.298C424.912,171.09 425.105,170.866 425.048,170.658C425.012,170.53 424.776,170.545 424.725,170.422C423.494,167.482 424.423,100.96 424.024,99.621C423.635,98.316 422.499,98.495 411.5,98.51C409.131,98.513 408.256,98.934 408.101,96.548C408.086,96.315 408.081,70.655 408.102,70.451C408.36,67.909 410.527,68.519 412.5,68.521C422.996,68.532 423.341,68.652 423.756,67.668C424.194,66.63 424.091,66.578 424.1,32.499C424.101,29.942 423.94,29.131 426.479,29.072C426.538,29.071 460.311,29.067 460.534,29.075C463.259,29.177 462.776,30.412 462.776,39.5C462.776,67.205 462.767,67.216 462.84,67.406C462.899,67.562 463.135,67.575 463.24,67.704C463.506,68.032 463.378,68.441 464.498,68.516C466.22,68.63 486.605,68.279 487.356,68.743C487.435,68.792 487.407,68.812 488.048,69.682Z" style="fill:rgb(236,49,54);fill-opacity:1;"/>
                <path d="M929.046,177.025C925.523,180.098 916.984,188.731 897.576,192.798C896.216,193.083 890.167,193.665 889.522,193.727C875.029,195.121 849.971,188.205 844.607,162.479C839.375,137.387 860.586,121.619 883.463,118.251C884.181,118.145 884.182,118.244 892.503,117.539C895.233,117.308 910.361,117.274 923.421,120.798C929.794,122.517 931.235,123.717 932.123,123.035C932.762,122.544 932.64,121.343 932.603,117.5C932.585,115.578 933.842,92.761 913.42,83.686C905.654,80.235 892.659,79.233 879.675,83.989C867.026,88.622 859.254,94.721 858.561,94.804C857.187,94.968 856.849,94.129 854.856,90.314C852.663,86.117 851.634,84.991 854.824,83C879.105,67.843 894.093,68.23 906.461,68.919C910.005,69.116 921.982,71.399 929.361,76.704C951.015,92.27 948.91,111.496 948.91,136.5C948.91,174.29 948.764,174.47 949.92,176.249C951.75,179.065 954.382,177.535 954.765,180.469C954.797,180.715 954.818,191.204 954.748,191.547C954.178,194.367 944.931,193.604 942.447,192.624C936.256,190.181 934.966,184.96 934.886,175.477C934.864,172.791 935.396,172.453 934.31,171.937C933.366,171.488 933.462,172.119 931.426,174.433C930.879,175.054 929.237,176.819 929.046,177.025L904.529,128.004C892.015,127.337 884.131,128.199 874.486,132.472C848.284,144.08 859.059,179.639 886.528,181.168C913.857,182.689 930.034,165.156 932.095,157.397C932.917,154.301 932.802,135.702 932.231,134.663C931.345,133.051 918.201,128.67 904.529,128.004L929.046,177.025Z" style="fill:rgb(25,25,25);fill-opacity:1;"/>
                <path d="M190.081,125.172C187.112,128.995 187.331,130.89 186.378,134.461C185.509,137.715 185.587,137.757 185.587,161.5C185.587,192.784 185.629,192.857 185.286,193.328C184.767,194.039 184.54,193.952 151.5,193.952C148.051,193.952 146.449,194.62 146.411,191.502C146.39,189.8 146.414,189.81 146.412,73.5C146.412,73.114 146.389,69.538 146.418,69.478C146.522,69.266 146.893,69.333 147.05,69.156C147.252,68.929 147.181,68.495 147.437,68.33C147.651,68.192 183.955,68.183 184.563,68.333C185.917,68.668 185.589,70.525 185.58,74.5C185.572,78.074 185.006,80.558 186.482,80.433C187,80.389 188.014,79.177 188.124,79.045C188.176,78.984 188.448,78.118 189.555,77.585C191.64,76.583 193.952,74.899 194.57,74.627C195.127,74.383 201.307,71.667 201.538,71.604C203.086,71.179 203.044,71.127 204.535,70.605C204.847,70.496 204.91,70.787 208.543,69.634C209.843,69.222 212.204,69.428 214.599,68.846C218.608,67.872 223.869,68.197 224.365,68.646C224.999,69.22 224.87,69.411 224.88,111.5C224.881,114.597 225.6,115.981 222.496,115.895C217.977,115.769 214.101,114.43 210.425,115.146C207.514,115.714 207.512,115.555 204.55,115.933C203.471,116.07 197.042,118.434 195.59,119.62C195.504,119.691 194.908,120.177 194.537,120.542C194.325,120.751 193.717,121.771 192.449,122.434C190.782,123.307 191.112,123.628 190.081,125.172Z" style="fill:rgb(235,37,142);fill-opacity:1;"/>
                <path d="M775.98,111.994C782.14,106.416 805.049,83.402 810.355,78.346C819.392,69.734 819.104,68.611 823.5,68.598C835.491,68.561 835.475,68.387 836.515,68.441C838.269,68.532 838.065,69.511 836.76,70.683C835.3,71.994 791.239,116.32 787.287,120.296C784.882,122.716 787.568,124.352 790.019,127.848C795.375,135.486 795.651,135.256 801.015,142.86C801.32,143.292 804.018,147.116 804.851,148.241C817.774,165.694 817.673,165.765 818.818,167.267C819.332,167.94 823.895,173.927 825.14,175.762C829.48,182.166 829.77,181.939 831.046,183.822C835.384,190.219 837.009,191.654 837.407,192.528C838.167,194.198 835.678,194.026 835.485,194.013C829.314,193.587 821.979,194.428 820.583,193.376C819.285,192.399 803.91,170.749 799.747,165.316C798.901,164.212 776.019,132.633 775.543,132.434C773.908,131.752 772.605,133.419 771.487,134.486C767.738,138.067 762.97,142.509 762.225,143.202C751.373,153.312 748.433,155.414 748,157.554C747.899,158.053 747.978,190.33 747.951,191.522C747.883,194.411 746.567,193.905 738.5,193.905C733.6,193.905 731.766,194.683 731.928,190.499C732.123,185.491 731.93,23.146 732.027,22.422C732.329,20.179 733.68,20.622 740.5,20.622C746.5,20.622 748.013,19.992 748.021,23.503C748.044,32.542 748.289,131.789 747.881,136.483C747.713,138.417 748.823,138.815 749.695,137.868C753.187,134.076 771.158,116.978 775.98,111.994Z" style="fill:rgb(26,26,26);fill-opacity:1;"/>
                <path d="M697.026,176.051C675.934,197.224 640.684,199.791 625.879,182.183C617.491,172.206 616.011,157.752 615.416,154.514C614.671,150.465 614.775,137.769 614.776,73.5C614.776,70.087 614.079,68.678 617.502,68.654C629.228,68.573 629.298,68.427 630.139,68.988C630.935,69.519 630.834,69.777 630.834,97.5C630.834,144.391 630.035,154.345 636.126,165.69C643.508,179.437 654.167,179.888 665.455,179.09C667.768,178.926 675.746,176.77 680.336,174.191C697.608,164.487 704.557,147.173 704.661,143.504C704.79,138.954 704.443,70.643 704.855,69.648C705.321,68.522 705.69,68.634 717.499,68.654C721.442,68.661 720.756,70.311 720.756,75.5C720.756,173.77 720.685,173.825 721.327,175.565C722.713,179.319 726.362,177.332 726.457,181.501C726.709,192.526 726.203,192.807 725.378,193.268C723.087,194.545 706.415,195.808 706.264,178.502C706.151,165.602 707.022,164.634 705.558,164.698C704.652,164.738 704.452,167.389 700.29,172.328C699.943,172.741 697.288,175.753 697.026,176.051Z" style="fill:rgb(26,26,26);fill-opacity:1;"/>
                <path d="M256.5,67.995C265.114,68.198 265.082,67.891 269.537,68.07C272.007,68.169 271.733,69.013 271.731,71.5C271.731,106.833 271.731,142.167 271.731,177.5C271.731,192.885 271.924,193.383 270.633,193.816C270.165,193.973 270.183,193.946 241.5,193.946C234.502,193.946 232.999,194.507 232.968,191.493C232.918,186.534 233.037,186.539 233.037,129.5C233.037,69.173 232.977,69.028 233.51,68.51C234.124,67.913 234.271,67.995 256.5,67.995Z" style="fill:rgb(254,213,38);fill-opacity:1;"/>
                <path d="M1008.004,54.034C1003.82,57.533 1001.308,58.378 995.528,58.143C992.098,58.003 982.21,54.644 984.228,42.444C984.827,38.827 989.297,36.531 985.658,36.156C983.589,35.943 984.087,33.083 984.104,32.471C984.183,29.704 985.446,30.194 994.5,30.194C1011.229,30.194 1016.957,29.162 1021.125,36.699C1024.882,43.49 1021.83,55.969 1018.478,55.815C1018.193,55.801 1015.526,54.835 1015.437,53.507C1015.345,52.144 1019.754,46.747 1016.689,40.404C1015.029,36.968 1011.096,36.365 1010.508,36.275C1008.53,35.972 1007.275,35.765 1008.063,37.598C1008.547,38.725 1011.465,39.759 1010.88,47.534C1010.668,50.352 1009.287,52.28 1008.004,54.034L991.002,39.069C990.63,39.577 989.001,40.796 988.919,44.492C988.705,54.114 1006.533,56.087 1006.089,43.519C1005.848,36.722 996.311,34.158 991.485,38.483C991.296,38.652 991.191,38.901 991.002,39.069L1008.004,54.034Z" style="fill:rgb(54,51,53);fill-opacity:1;"/>
                <path d="M1004.3,172.988C1016.13,178.783 1012.014,191.024 1011.864,191.592C1009.693,199.861 998.46,204.281 990.236,198.919C989.433,198.395 986.755,197.487 984.574,191.475C983.888,189.585 982.807,180.911 987.853,175.85C991.361,172.331 995.716,172.116 996.468,172.078C1001.895,171.81 1002.263,172.414 1004.3,172.988L997.449,194.969C1009.746,195.359 1009.152,182.336 1003.537,179.438C992.132,173.553 983.68,187.561 993.367,193.739C995.011,194.788 996.722,194.846 997.449,194.969L1004.3,172.988Z" style="fill:rgb(55,52,53);fill-opacity:1;"/>
                <path d="M989.278,138.687C988.855,138.407 985.882,137.102 984.61,133.458C984.033,131.805 983.141,126.088 985.623,122.587C988.99,117.837 993.689,118.259 1008.5,118.314C1008.786,118.315 1011.545,118.325 1012.028,118.911C1012.348,119.298 1013.468,124.371 1010.509,124.585C1003.817,125.071 991.665,122.699 990.237,128.414C987.909,137.728 997.023,138.8 997.477,138.824C999.389,138.926 1010.76,138.752 1011.361,138.959C1012.756,139.44 1012.883,144.092 1011.586,144.653C1008.815,145.852 995.596,143.118 991.654,146.662C989.044,149.009 987.459,159.139 999.503,159.231C1010.858,159.318 1012.345,158.531 1012.43,161.504C1012.437,161.735 1012.5,163.948 1012.234,164.383C1011.555,165.493 1011.221,165.339 992.5,165.339C986.249,165.339 984.319,165.79 984.119,163.557C984.092,163.245 983.836,160.384 984.673,159.687C985.209,159.241 987.311,159.446 987.44,159.38C989.475,158.333 987.234,158.111 985.843,156.272C982.97,152.476 983.131,142.663 988.455,140.44C988.708,140.335 989.079,140.394 989.232,140.166C989.298,140.068 989.235,140.058 989.278,138.687Z" style="fill:rgb(54,51,53);fill-opacity:1;"/>
                <path d="M334.496,222.491C334.587,222.324 334.916,222.404 335.007,222.237C335.169,221.938 335.032,220.622 335.017,220.482C334.584,216.333 334.915,208.755 334.951,208.653C334.971,208.598 335.88,207.525 336.464,207.738C338.018,208.304 337.722,210.844 337.722,211.5C337.722,213.983 337.723,242.315 337.682,242.536C337.39,244.108 335.393,244.746 334.915,242.381C334.858,242.098 335.174,240.285 334.636,240.299C333.638,240.325 331.674,243.355 328.413,244.042C315,246.87 311.514,234.7 311.941,230.538C313.207,218.191 326.539,214.51 333.385,221.733C333.851,222.224 333.912,222.093 334.496,222.491L333.029,224.769C329.529,221.106 327.636,221.124 327.566,221.109C313.17,218.178 310.96,238.165 321.538,241.39C328.63,243.552 334.358,238.426 334.783,233.527C335.346,227.05 333.069,224.839 333.029,224.769L334.496,222.491Z" style="fill:rgb(54,51,53);fill-opacity:0.98;"/>
                <path d="M281.011,31.471C280.746,38.074 280.085,44.7 270.497,53.496C269.105,54.773 268.885,54.439 267.51,55.514C267.346,55.643 267.3,55.896 267.122,56.003C266.645,56.291 266.077,56.399 265.591,56.672C265.446,56.753 265.417,56.987 265.261,57.048C265.104,57.109 264.916,56.935 264.759,56.995C264.605,57.054 264.575,57.282 264.433,57.366C264.173,57.519 263.846,57.536 263.585,57.688C263.451,57.766 263.428,57.991 263.281,58.037C263.095,58.096 262.887,57.911 262.702,57.969C262.562,58.013 262.554,58.243 262.423,58.307C262.127,58.45 262.07,58.227 258.453,59.351C256.738,59.884 253.227,59.872 252.513,59.895C252.665,59.414 252.947,58.981 253.099,58.5C253.3,57.865 253.271,57.848 253.271,40.5C253.271,33.435 252.752,32.003 255.517,31.942C265.009,31.733 264.977,32.004 274.5,32.004C277.815,32.004 277.897,32.609 281.011,31.471Z" style="fill:rgb(254,212,38);fill-opacity:1;"/>
                <path d="M250.435,1.205C250.657,3.528 250.957,27.64 250.333,28.389C249.465,29.431 247.442,29.027 226.499,29.091C224.706,29.096 224.702,28.976 222.987,29.541C223.18,23.343 223.473,23.384 225.558,17.526C226.785,14.076 231.792,9.079 232.438,8.435C234.549,6.327 234.692,6.534 237.302,5.139C237.758,4.895 238.706,3.918 239.547,3.586C239.829,3.475 240.147,3.446 240.409,3.292C240.544,3.213 240.538,2.957 240.689,2.916C240.89,2.86 241.101,3.108 241.301,3.048C241.452,3.002 241.421,2.724 241.561,2.65C241.852,2.498 241.923,2.811 245.536,1.608C246.458,1.3 250.042,1.215 250.435,1.205Z" style="fill:rgb(0,175,239);fill-opacity:1;"/>
                <path d="M252.549,1.154C253.344,1.193 258.781,1.46 262.36,2.848C262.495,2.9 262.499,3.129 262.632,3.186C263.194,3.428 263.83,3.469 264.388,3.721C264.487,3.765 264.376,3.928 265.515,4.476C266.991,5.187 269.384,6.974 269.705,7.213C273.738,10.225 273.387,10.561 276.529,14.479C276.659,14.64 276.906,14.69 277.013,14.867C277.564,15.781 280.67,22.599 280.887,26.47C280.901,26.705 280.889,26.687 280.904,29.407C279.289,29.01 279.281,29.114 270.5,29.114C254.415,29.114 254.225,29.226 253.547,28.465C252.758,27.581 253.512,4.023 253.091,2.5C252.961,2.034 252.678,1.62 252.549,1.154Z" style="fill:rgb(235,38,143);fill-opacity:1;"/>
                <path d="M411.5,253.999L408.5,253.999C408.5,251.319 408.496,220.725 408.503,220.5C408.572,218.356 410.001,217.788 410.88,219.211C411.15,219.648 411.175,222.46 411.456,222.572C412.191,222.867 413.439,219.852 417.555,218.67C428.095,215.643 434.983,225.197 434.132,232.461C432.58,245.708 417.932,247.428 412.427,240.653C410.804,238.656 411.235,241.434 411.235,248.5C411.235,251.278 411.292,251.244 411.5,253.999L414.088,238.896C414.412,239.185 416.883,242.41 422.543,241.796C435.84,240.352 433.321,217.734 418.427,221.143C415.452,221.824 411.619,225.149 411.276,229.481C410.717,236.536 413.512,238.259 414.088,238.896L411.5,253.999Z" style="fill:rgb(54,51,52);fill-opacity:0.98;"/>
                <path d="M223.23,31.63C231.214,32.717 249.121,30.953 250.312,32.635C250.983,33.583 250.497,52.395 250.642,57.494C250.673,58.564 250.55,58.535 250.457,59.583C246.677,59.609 246.228,59.514 243.483,58.555C241.809,57.97 241.773,58.196 241.636,58.133C241.503,58.071 241.524,57.83 241.391,57.769C240.831,57.514 240.19,57.469 239.629,57.216C239.485,57.151 239.476,56.917 239.335,56.844C238.809,56.574 238.197,56.494 237.677,56.212C237.58,56.159 237.624,56.111 236.561,55.405C236.409,55.304 236.358,55.073 236.19,55C236.059,54.943 235.896,55.119 235.766,55.059C235.708,55.032 231.927,51.833 231.555,51.445C231.385,51.268 231.308,51.017 231.143,50.835C230.43,50.047 230.195,50.293 229.659,49.36C229.142,48.462 228.798,48.482 228.685,48.346C228.514,48.139 228.495,47.831 228.324,47.623C228.197,47.469 227.94,47.456 227.822,47.295C227.304,46.588 227.636,46.452 227.13,45.726C226.965,45.488 225.843,43.879 225.368,42.561C224.819,41.038 224.582,41.143 224.209,39.575C223.877,38.178 222.829,35.232 223.077,33.562C223.157,33.023 223.341,33.091 223.383,32.565C223.421,32.084 223.191,32.124 223.23,31.63Z" style="fill:rgb(54,52,53);fill-opacity:1;"/>
                <path d="M266.978,221.966C268.195,220.998 268.94,220.122 270.455,219.407C279.611,215.083 288.485,222.01 289.022,229.525C290.341,247.99 266.73,249.139 263.708,234.451C262.124,226.751 266.681,222.36 266.978,221.966L269.033,238.947C269.223,239.107 271.508,241.975 276.509,241.889C290.892,241.641 288.851,217.577 273.417,221.149C268.591,222.267 262.162,230.304 269.033,238.947L266.978,221.966Z" style="fill:rgb(55,51,52);fill-opacity:0.98;"/>
                <path d="M559.989,223.796C560.535,223.013 563.861,218.238 570.494,218.129C586.594,217.865 587.441,241.146 574.424,244.048C562.097,246.797 553.847,235.374 559.989,223.796L577.945,238.924C584.398,230.923 578.987,222.405 573.584,221.149C558.632,217.673 556.217,240.387 569.458,241.793C575.2,242.403 577.713,239.126 577.945,238.924L559.989,223.796Z" style="fill:rgb(55,51,53);fill-opacity:0.98;"/>
                <path d="M987.377,82.589C985.433,80.907 985.312,80.934 984.52,78.493C984.511,78.465 982.718,71.796 985.673,67.618C988.756,63.259 992.015,63.38 1009.5,63.486C1012.563,63.505 1012.534,64.434 1012.43,67.496C1012.337,70.241 1011.254,69.708 1008.5,69.718C996.476,69.763 992.747,69.038 990.639,72.581C990.427,72.938 988.53,77.82 991.611,81.406C996.642,87.262 1011.531,81.743 1012.35,85.539C1013.356,90.202 1010.9,90.337 1010.487,90.36C1008.731,90.456 1008.738,90.373 988.5,90.369C987.328,90.369 984.323,90.949 984.118,88.555C983.716,83.863 985.416,84.524 986.465,84.349C986.745,84.207 987.127,84.448 987.407,84.306C988.033,83.99 988.027,83.638 988.026,83.56C988.015,82.928 987.388,83.219 987.377,82.589Z" style="fill:rgb(54,51,53);fill-opacity:1;"/>
                <path d="M842.954,240.106C842.815,239.895 842.645,239.706 842.506,239.496C836.482,230.342 841.74,220.647 848.551,218.662C861.273,214.955 867.03,230.124 863.35,232.027C862.383,232.527 843.942,232.016 843.441,232.414C841.707,233.793 845.194,243.428 855.531,241.676C858.947,241.098 861.382,237.992 862.305,239.614C863.555,241.808 856.923,244.914 852.503,244.469C846.792,243.894 845.421,242.498 842.954,240.106L845.018,224.113C844.76,224.487 842.063,228.401 843.438,229.579C843.788,229.879 843.862,229.731 858.501,229.776C860.009,229.781 862.748,230.331 861.068,226.69C858.221,220.522 853.314,220.77 851.528,220.855C851.05,220.878 848.129,221.016 845.918,222.952C845.549,223.274 845.386,223.79 845.018,224.113L842.954,240.106Z" style="fill:rgb(54,51,52);fill-opacity:0.97;"/>
                <path d="M366.161,242.049C364.779,242.856 361.699,245.391 354.57,244.103C341.095,241.669 341.753,217.838 357.505,218.119C368.035,218.306 371.243,230.591 368.357,232.036C367.367,232.532 349.089,231.985 348.467,232.451C346.168,234.17 351.511,244.244 361.489,241.46C363.945,240.775 366.426,238.069 367.28,239.628C367.922,240.802 367.182,240.728 366.161,242.049L350,224.085C346.298,229.428 348.996,229.729 349.451,229.763C349.542,229.77 365.363,229.797 365.591,229.757C368.531,229.231 364.175,223.088 362.171,221.987C357.914,219.647 352.784,221.316 350.902,222.931C350.531,223.249 350.371,223.767 350,224.085L366.161,242.049Z" style="fill:rgb(55,51,52);fill-opacity:0.97;"/>
                <path d="M922.966,240.102C921.778,238.331 919.646,235.882 920.039,230.459C921.256,213.661 943.12,214.479 944.242,229.536C944.485,232.794 941.908,232.249 938.5,232.259C925.569,232.296 925.578,232.189 924.456,232.255C921.207,232.446 924.44,237.501 924.457,237.529C926.19,240.485 930.626,242.596 935.539,241.69C938.966,241.058 941.388,238.013 942.313,239.611C943.527,241.709 937.072,244.928 932.502,244.472C926.318,243.855 924.989,242.116 922.966,240.102L926.091,223.01C925.766,223.279 923.808,224.903 923.252,227.45C922.697,229.993 923.9,229.773 926.5,229.775C940.899,229.784 941.024,229.804 941.35,229.384C942.247,228.224 939.415,219.681 930.563,220.927C927.829,221.312 926.612,222.635 926.091,223.01L922.966,240.102Z" style="fill:rgb(54,51,52);fill-opacity:0.97;"/>
                <path d="M682.944,241.05C682.277,240.186 679.51,237.726 679.149,232.539C677.974,215.608 699.177,213.798 702.851,226.391C704.257,231.21 702.797,231.87 702.382,232.058C701.306,232.544 683.162,231.918 682.515,232.516C681.456,233.498 682.973,240.706 690.457,241.751C697.875,242.787 700.04,237.575 701.401,239.566C702.667,241.417 696.967,244.916 691.503,244.461C685.818,243.988 684.096,241.909 682.944,241.05L685.136,223.071C679.868,228.843 682.879,229.683 683.426,229.765C683.518,229.779 699.424,229.789 699.586,229.761C702.473,229.257 698.761,222.466 694.585,221.237C693.607,220.949 691.099,220.706 689.568,220.937C686.912,221.336 685.67,222.679 685.136,223.071L682.944,241.05Z" style="fill:rgb(54,52,52);fill-opacity:0.98;"/>
                <path d="M869.997,232.874C871.077,231.832 870.999,231.777 872.274,231.033C877.075,228.234 885.069,230.531 886.466,229.461C887.326,228.802 887.743,221.814 881.435,220.921C875.399,220.067 871.49,223.697 870.607,223.226C865.23,220.357 889.903,210.918 889.811,228.494C889.736,242.837 889.927,242.949 889.463,243.467C888.353,244.708 887.9,244.178 887.145,242.686C886.622,241.654 886.302,241.565 885.422,242.318C881.442,245.724 870.366,245.838 868.83,238.454C868.33,236.05 869.785,233.278 869.997,232.874L887.03,234.503C886.595,232.585 886.686,232.555 886.562,232.44C886.231,232.131 884.677,232.116 884.511,232.114C877.351,232.043 873.831,231.978 872.353,234.4C868.795,240.228 877.105,244.531 883.553,240.58C887.654,238.067 887.022,234.595 887.03,234.503L869.997,232.874Z" style="fill:rgb(54,51,52);fill-opacity:0.95;"/>
                <path d="M1009.044,204.952C1009.479,205.543 1015.126,211.974 1011.484,221.493C1006.926,233.41 985.951,231.541 984.173,218.547C983.147,211.048 986.362,203.274 989.436,204.628C989.885,204.826 991.005,205.768 991.134,205.877C993.727,208.06 986.586,211.932 990.566,219.461C993.299,224.631 1007.872,226.405 1007.142,213.528C1006.855,208.465 1002.667,207.683 1005.837,204.897C1007.201,203.697 1007.422,204.137 1009.044,204.952Z" style="fill:rgb(55,52,53);fill-opacity:1;"/>
                <path d="M250.435,1.205C251.139,1.188 251.844,1.171 252.549,1.154C252.678,1.62 252.961,2.034 253.091,2.5C253.512,4.023 252.758,27.581 253.547,28.465C254.225,29.226 254.415,29.114 270.5,29.114C279.281,29.114 279.289,29.01 280.904,29.407C280.94,30.095 280.975,30.783 281.011,31.471C277.897,32.609 277.815,32.004 274.5,32.004C264.977,32.004 265.009,31.733 255.517,31.942C252.752,32.003 253.271,33.435 253.271,40.5C253.271,57.848 253.3,57.865 253.099,58.5C252.947,58.981 252.665,59.414 252.513,59.895C251.828,59.791 251.142,59.687 250.457,59.583C250.55,58.535 250.673,58.564 250.642,57.494C250.497,52.395 250.983,33.583 250.312,32.635C249.121,30.953 231.214,32.717 223.23,31.63C223.149,30.933 223.068,30.237 222.987,29.541C224.702,28.976 224.706,29.096 226.499,29.091C247.442,29.027 249.465,29.431 250.333,28.389C250.957,27.64 250.657,3.528 250.435,1.205Z" style="fill:rgb(253,253,250);fill-opacity:1;"/>
                <path d="M734.996,226.682C737.885,219.305 738.084,219.168 738.658,218.773C740.799,217.299 742.071,222.28 745.296,230.577C748.587,239.043 748.333,240.279 749.496,239.493C749.848,239.255 750.327,237.513 751.426,234.471C751.855,233.285 756.434,220.622 756.926,219.693C758.073,217.532 759.548,218.685 759.606,219.482C759.665,220.301 751.419,241.802 751.137,242.349C750.098,244.367 748.239,244.259 747.311,242.604C745.339,239.09 741.33,227.669 740.867,226.349C740.103,224.173 740.397,223.757 739.465,223.72C738.75,223.691 738.735,223.812 738.504,224.503C738.345,224.983 737.565,227.323 736.352,230.45C732.359,240.747 731.452,243.31 730.598,243.667C728.846,244.401 728.061,243.667 725.986,238.305C725.438,236.891 720.776,224.845 719.403,220.533C719.344,220.348 718.619,218.074 720.52,218.382C722.156,218.647 724.234,226.403 726.254,231.588C728.945,238.499 728.654,238.596 728.921,239.182C729.013,239.382 730.014,239.574 730.324,239.316C730.4,239.252 734.626,227.694 734.996,226.682Z" style="fill:rgb(54,51,52);fill-opacity:0.96;"/>
                <path d="M800.634,222.189C802.28,220.93 802.148,220.823 802.499,220.499C803.41,219.657 808.481,216.526 814.68,219.066C820.802,221.574 820.728,226.471 820.56,241.501C820.557,241.745 820.517,245.289 818.383,243.635C817.893,243.255 817.893,238.913 817.893,238.5C817.893,230.271 818.958,221.993 811.56,221.012C805.197,220.169 803.276,223.096 802.19,224.268C798.471,228.28 800.664,238.636 800.072,242.454C800.045,242.627 799.804,244.182 798.552,244.023C798.401,244.004 797.624,243.906 797.391,242.52C797.074,240.625 797.371,240.618 797.354,218.5C797.347,209.521 797.115,208.306 798.534,207.744C800.477,206.973 800.094,212.868 800.088,216.5C800.08,220.628 799.462,220.842 800.634,222.189Z" style="fill:rgb(55,52,53);fill-opacity:0.97;"/>
                <path d="M651.951,222.002C652.889,221.468 652.866,221.488 653.652,220.783C657.359,217.46 663.889,217.655 666.639,219.205C671.037,221.684 672.144,224.851 672.061,230.501C671.9,241.509 672.257,241.519 672.046,242.452C671.674,244.095 669.34,245.182 669.269,241.505C669.046,230.047 671.237,220.956 661.492,220.874C655.884,220.827 654.358,223.332 653.022,225.242C650.823,228.384 652.199,240.267 651.756,242.554C651.439,244.191 649.82,243.943 649.414,243.593C648.931,243.175 648.931,239.83 648.931,239.5C648.93,222.027 648.888,222.04 648.915,220.522C648.968,217.541 651.35,218.425 651.487,219.506C651.571,220.162 651.402,220.839 651.523,221.489C651.563,221.708 651.91,221.783 651.951,222.002Z" style="fill:rgb(55,51,53);fill-opacity:0.96;"/>
                <path d="M594.538,221.661C595.714,220.625 598.521,217.684 604.522,218.167C615.686,219.065 614.14,231.317 614.139,240.5C614.139,240.754 614.139,243.105 613.608,243.633C613.183,244.056 611.557,244.18 611.233,242.557C610.764,240.21 612.492,225.91 609.059,222.906C604.654,219.051 594.462,220.058 593.586,229.509C593.163,234.071 594.223,243.528 592.642,243.86C592.461,243.898 590.989,244.206 590.804,242.46C590.668,241.176 590.931,228.477 590.802,222.501C590.797,222.268 590.744,219.851 590.844,219.591C591.502,217.88 593.189,218.415 593.305,219.581C593.405,220.595 593.206,220.57 593.335,221.594C593.385,221.985 593.596,221.895 593.646,222.294C593.914,222.383 593.505,223.041 593.773,223.13C594.758,223.461 594.06,222.579 594.538,221.661Z" style="fill:rgb(55,52,53);fill-opacity:0.98;"/>
                <path d="M490.963,223.079C490.46,222.658 489.542,221.261 486.451,220.923C485.958,220.869 482.369,220.698 480.592,221.67C474.246,225.143 475.603,229.793 475.479,241.5C475.437,245.558 473.047,243.391 472.986,243.251C472.548,242.242 472.629,242.21 472.811,229.5C472.953,219.55 472.436,218.02 474.502,218.493C475.497,218.721 475.275,221.587 475.321,221.624C475.968,222.15 477.451,220.778 477.597,220.644C480.421,218.031 484.84,218.113 485.504,218.126C497.28,218.345 495.806,231.318 495.807,231.5C495.843,242.646 495.961,243.887 494.464,244.028C492.888,244.178 492.872,241.735 492.87,241.495C492.777,227.035 493.508,226.671 490.963,223.079Z" style="fill:rgb(54,52,52);fill-opacity:0.98;"/>
                <path d="M915,241.128C912.153,243.964 909.998,245.104 902.545,244.156C898.966,243.701 895.944,242.098 896.205,240.383C896.552,238.113 899.701,241.679 905.475,241.919C914.844,242.308 914.933,235.824 910.716,234.024C906.231,232.108 895.844,232.659 896.698,224.525C897.649,215.464 913.796,218.127 914.592,220.444C915.628,223.458 911.685,221.738 911.437,221.63C907.527,219.925 899.002,220.588 899.338,225.514C899.379,226.126 899.971,227.771 901.472,228.547C906.291,231.036 916.318,230.115 916.217,237.494C916.193,239.299 915.316,240.519 915,241.128Z" style="fill:rgb(54,51,52);fill-opacity:0.97;"/>
                <path d="M524.868,219.999C526.551,219.059 530.658,216.459 538.518,219.46C541.187,220.479 540.142,222.21 539.441,222.32C538.357,222.491 538.398,222.201 536.507,221.485C533.964,220.522 525.934,219.904 525.099,224.415C523.592,232.556 540.494,227.698 541.526,236.497C542.787,247.242 523.97,245.204 521.763,241.384C521.642,241.174 520.667,238.302 524.593,240.31C530.208,243.182 537.719,242.172 538.719,238.568C540.192,233.254 530.7,232.682 528.59,232.164C523.971,231.031 521.083,227.55 522.401,223.466C523.071,221.39 523.328,221.547 524.868,219.999Z" style="fill:rgb(54,52,52);fill-opacity:0.98;"/>
                <path d="M506.009,237.529C505.774,232.353 505.974,230.315 505.916,223.491C505.885,219.897 504.04,221.293 502.36,220.821C501.523,220.585 500.019,218.481 503.476,218.255C503.799,218.233 504.123,218.252 504.445,218.225C506.226,218.077 505.872,216.403 505.916,215.51C506.156,210.717 508.329,213.301 508.488,213.508C508.796,213.909 508.656,213.949 508.785,216.473C508.911,218.95 511.998,218.188 514.514,218.252C514.723,218.258 516.749,218.31 516.82,219.466C516.941,221.437 512.254,220.92 511.506,220.94C508.675,221.013 508.775,221.854 508.775,224.5C508.774,238.048 508,242.135 513.526,241.898C515.075,241.831 514.984,241.466 516.496,241.298C518.022,241.129 517.945,242.384 517.935,242.535C517.861,243.751 514.572,244.653 512.501,244.481C505.865,243.93 506.081,238.063 506.009,237.529Z" style="fill:rgb(54,51,52);fill-opacity:0.96;"/>
                <path d="M779.982,242.116C778.804,240.021 778.704,239.996 778.701,235.5C778.691,222.018 778.986,221.323 777.369,220.979C776.722,220.842 776.041,220.989 775.387,220.886C774.028,220.672 773.922,219.179 774.596,218.613C775.037,218.242 775.095,218.402 777.414,218.203C779.195,218.05 778.694,214.826 778.711,214.522C778.834,212.267 781.192,212.274 781.316,214.519C781.353,215.185 781.296,215.855 781.335,216.521C781.484,219.071 782.762,217.914 787.532,218.265C789.827,218.435 789.209,220.157 789.143,220.269C788.761,220.923 785.797,220.938 785.5,220.94C782.492,220.955 781.345,220.502 781.325,223.497C781.227,238.217 781.166,238.263 781.703,239.418C783.94,244.226 789.356,240.331 790.356,241.607C791.526,243.101 788.129,244.925 784.512,244.415C781.116,243.936 780.028,242.157 779.982,242.116Z" style="fill:rgb(54,51,53);fill-opacity:0.98;"/>
                <path d="M1000.979,106.386C1000.962,106.078 1000.895,105.775 1000.877,105.467C1000.548,99.611 1007.227,97.651 1010.672,100.241C1016.365,104.522 1011.614,111.595 1006.452,110.915C1001.852,110.309 1001.169,106.826 1000.979,106.386Z" style="fill:rgb(55,52,53);fill-opacity:1;"/>
                <path d="M1012.034,237.866C1017.47,248.444 1001.336,251.152 1000.868,241.503C1000.653,237.081 1007.131,233.079 1012.034,237.866Z" style="fill:rgb(55,52,53);fill-opacity:1;"/>
                <path d="M447.085,223.016C443.366,227.128 444.112,227.701 444.034,241.495C444.013,245.168 441.492,244.048 441.202,242.565C441.017,241.618 441.302,234.111 441.161,222.497C441.157,222.193 441.121,219.231 441.704,218.743C442.362,218.192 443.516,218.565 443.743,219.358C443.84,219.696 443.766,220.062 443.831,220.407C444.108,221.887 445.255,221.386 445.387,221.328C445.446,221.302 445.963,220.152 448.339,219.15C453.964,216.779 453.806,219.743 453.331,220.369C452.992,220.816 450.144,221.219 449.487,221.469C448.279,221.93 448.385,222.065 447.085,223.016Z" style="fill:rgb(55,51,53);fill-opacity:0.94;"/>
                <path d="M302.11,223.048C298.276,227.167 299.31,227.818 299.175,241.496C299.173,241.736 299.148,244.256 297.557,244.02C296.074,243.801 296.307,241.913 296.315,231.5C296.324,220.418 296.158,220.394 296.432,219.472C296.824,218.15 298.502,218.265 298.822,219.291C298.858,219.406 299.071,220.09 299.072,220.786C299.074,221.34 298.873,221.595 299.444,221.592C300.432,221.586 300.818,220.45 302.526,219.542C307.458,216.922 309.323,218.972 308.307,220.355C307.974,220.809 305.127,221.226 304.489,221.474C303.308,221.933 303.414,222.07 302.11,223.048Z" style="fill:rgb(54,52,52);fill-opacity:0.98;"/>
                <path d="M379.589,222.342C380.098,221.969 380.146,222.068 380.564,221.627C380.644,221.543 381.421,220.726 381.567,220.582C383.866,218.325 389.09,217.363 389.156,219.511C389.203,221.091 386.334,220.86 384.566,221.629C378.17,224.408 379.445,232.988 379.369,241.498C379.351,243.521 379.271,244.358 377.346,243.769C376.69,243.569 376.689,239.846 376.689,239.5C376.688,222.018 376.648,222.03 376.676,220.512C376.716,218.296 378.197,218.003 378.897,219.168C379.32,219.872 379.111,221.38 379.197,221.718C379.258,221.956 379.528,222.104 379.589,222.342Z" style="fill:rgb(55,52,53);fill-opacity:0.98;"/>
                <path d="M626.085,243.26C625.877,243.327 625.861,243.688 625.653,243.755C623.717,244.377 623.614,243.536 623.595,241.498C623.569,238.868 623.289,209.453 623.757,208.612C624.357,207.536 626.179,207.3 626.281,209.52C626.29,209.715 626.288,214.256 626.288,227.5C626.288,241.234 626.319,241.231 626.085,243.26Z" style="fill:rgb(55,52,53);"/>
                <path d="M638.995,220.435C639.036,222.12 639.151,226.813 639.07,241.495C639.049,245.197 636.537,244.022 636.255,242.551C636.254,242.549 636.048,220.468 636.373,219.445C636.41,219.329 636.679,218.484 637.491,218.422C638.973,218.307 638.518,219.047 638.995,220.435Z" style="fill:rgb(55,52,53);fill-opacity:0.97;"/>
                <path d="M460.035,228.5C460.035,227.856 460.035,220.63 460.045,220.445C460.057,220.22 460.231,217.038 462.292,218.751C462.86,219.223 462.869,222.196 462.87,222.5C462.875,224.106 462.932,242.047 462.828,242.574C462.492,244.265 459.907,244.883 459.978,241.495C460.044,238.306 460.035,238.327 460.035,228.5Z" style="fill:rgb(55,52,53);fill-opacity:0.99;"/>
                <path d="M767.998,220.435C768.04,222.119 768.154,226.758 768.074,241.495C768.053,245.2 765.57,244.02 765.297,242.541C765.295,242.532 765.099,220.478 765.409,219.462C765.444,219.347 765.704,218.494 766.49,218.424C767.968,218.291 767.519,219.027 767.998,220.435Z" style="fill:rgb(54,52,53);fill-opacity:0.96;"/>
                <path d="M954.051,233.367C953.307,234.387 953.007,234.848 952.191,233.86C951.205,232.667 952.03,232.429 951.51,215.5C951.465,214.044 950.918,209.918 952.535,209.664C954.229,209.398 954.309,211.309 954.318,211.515C954.324,211.66 954.288,220.755 954.272,223.498C954.224,231.5 954.188,231.488 954.051,233.367Z" style="fill:rgb(55,52,53);fill-opacity:1;"/>
                <path d="M954.166,240.895C954.714,242.223 955.371,242.329 954.459,243.467C953.489,244.677 950.148,244.125 951.292,241.358C951.956,239.754 952.479,240.52 954.166,240.895Z" style="fill:rgb(55,51,53);fill-opacity:0.98;"/>
                <path d="M638.328,212.001C638.07,211.942 637.796,212.143 637.538,212.084C634.972,211.496 635.832,207.524 638.51,208.481C639.507,208.837 639.729,210.659 639.218,211.302C638.983,211.598 638.562,211.706 638.328,212.001Z" style="fill:rgb(54,51,52);fill-opacity:0.98;"/>
                <path d="M764.995,210.46C765.541,209.057 765.069,208.497 766.467,208.311C766.605,208.293 767.494,208.175 768.121,208.859C769.753,210.639 766.945,213.09 765.479,211.519C765.214,211.235 765.26,210.744 764.995,210.46Z" style="fill:rgb(54,51,53);fill-opacity:0.98;"/>
                <path d="M459.991,208.934C461.397,208.33 461.377,208.277 461.509,208.282C463.89,208.369 463.507,213.264 460.348,211.718C458.845,210.982 459.566,210.531 459.991,208.934Z" style="fill:rgb(54,51,53);fill-opacity:0.98;"/>
                <path d="M987.377,82.589C987.388,83.219 988.015,82.928 988.026,83.56C988.027,83.638 988.033,83.99 987.407,84.306C987.127,84.448 986.745,84.207 986.465,84.349C986.769,83.762 987.073,83.175 987.377,82.589Z" style="fill:rgb(41,38,40);fill-opacity:0.31;"/>
                <path d="M594.538,221.661C594.06,222.579 594.758,223.461 593.773,223.13C593.505,223.041 593.914,222.383 593.646,222.294L594.538,221.661Z" style="fill:rgb(54,51,52);fill-opacity:0.55;"/>
            </g>
        </g>
    </g>
</svg>
