<?xml version="1.0" encoding="utf-8"?>
<!-- Generator: Adobe Illustrator 22.1.0, SVG Export Plug-In . SVG Version: 6.00 Build 0)  -->
<svg version="1.1" id="Layer_1" xmlns:xodm="http://www.corel.com/coreldraw/odm/2003"
	 xmlns="http://www.w3.org/2000/svg" xmlns:xlink="http://www.w3.org/1999/xlink" x="0px" y="0px" viewBox="0 0 315 83.2"
	 style="enable-background:new 0 0 315 83.2;" xml:space="preserve">
<style type="text/css">
	.st0{fill:#EC268F;}
	.st1{fill:#1A1A1A;}
	.st2{fill:#ED3237;}
	.st3{fill:#00AFEF;}
	.st4{clip-path:url(#SVGID_2_);}
	.st5{fill:#FFD526;}
	.st6{fill:#373435;}
	.st7{fill:none;stroke:#373435;stroke-width:2.54;stroke-miterlimit:2.6131;}
	.st8{fill:#FEFEFE;}
	.st9{fill:none;}
</style>
<g id="Layer_x0020_1">
	<path class="st0" d="M55.9,20.7h-8.9h-2.1v38.6h2.1h9.7h0V43.7c0-6.5,3.6-8.7,8.5-8.7c1.2,0,2.3,0.1,3.7,0.3V20.7
		c-5.1,0-9.4,1.3-12.3,4.2v-4.2L55.9,20.7L55.9,20.7z"/>
	<path class="st1" d="M122.8,59.3h-11.8V37.7c0-2.5-0.5-4.4-1.4-5.6c-1-1.2-2.3-1.7-3.8-1.7c-0.9,0-1.7,0.1-2.5,0.5
		c-0.8,0.3-1.7,0.8-2.4,1.4c-0.8,0.6-1.5,1.4-2.1,2.2c-0.6,0.8-1,1.7-1.4,2.7v22.1H85.7V20.7h10.5v6.5c1.4-2.3,3.4-4.1,6-5.4
		c2.6-1.2,5.6-1.9,9-1.9c2.5,0,4.5,0.5,6,1.4c1.5,1,2.7,2.1,3.6,3.6c0.8,1.4,1.4,3,1.7,4.7c0.3,1.7,0.3,3.4,0.3,5L122.8,59.3
		L122.8,59.3z"/>
	<path class="st1" d="M170,20.7c-5.5,0-10.4,2.9-13.6,7.4V2.7h-5.6v56.6h5.6v-7.3c3.2,4.5,8.1,7.4,13.6,7.4
		c9.5,0,17.3-8.6,17.3-19.3C187.3,29.3,179.5,20.7,170,20.7z M170,54.6c-7.3,0-13.1-6.6-13.1-14.6c0-8.1,5.9-14.6,13.1-14.6
		c7.2,0,13.1,6.5,13.1,14.6C183.1,48.1,177.2,54.6,170,54.6z"/>
	<path class="st2" d="M152.9,56.4c-1.7,0.7-3.5,1.3-5.6,1.9c-2.1,0.6-4.2,0.9-6.3,0.9c-1.5,0-2.9-0.2-4.2-0.5
		c-1.3-0.4-2.4-1-3.4-1.8c-1-0.8-1.7-1.9-2.3-3.2c-0.6-1.3-0.8-2.9-0.8-4.7V29.8h-5v-8.9h5V8.5h11.8v12.3h7.8v8.9h-7.8v15.1
		c0,1.2,0.3,2.2,0.9,2.8c0.7,0.5,1.4,0.8,2.5,0.8c0.9,0,1.8-0.1,2.7-0.4c1-0.3,1.8-0.6,2.5-1L152.9,56.4L152.9,56.4z"/>
	<path class="st3" d="M77.3,0c4.9,0,8.9,4.1,8.9,9c0,4.9-4,8.9-8.9,8.9c-5,0-8.9-4.1-8.9-8.9C68.3,4.1,72.3,0,77.3,0z"/>
	<g>
		<defs>
			<path id="SVGID_1_" d="M77.3,0c4.9,0,8.9,4.1,8.9,9c0,4.9-4,8.9-8.9,8.9c-5,0-8.9-4.1-8.9-8.9C68.3,4.1,72.3,0,77.3,0z"/>
		</defs>
		<clipPath id="SVGID_2_">
			<use xlink:href="#SVGID_1_"  style="overflow:visible;"/>
		</clipPath>
		<g class="st4">
			<g id="_2274999502400">
				<rect x="77.2" y="9.3" class="st5" width="10.3" height="11.6"/>
				<rect x="77.2" y="-2.3" class="st0" width="10.3" height="11.6"/>
				<rect x="67.1" y="9.3" class="st6" width="10.1" height="11.5"/>
				<line class="st7" x1="77.2" y1="21.5" x2="77.2" y2="18.7"/>
				<g>
					<rect x="76.8" y="-1.4" class="st8" width="0.9" height="20.6"/>
					<rect x="0" class="st8" width="0.3" height="6"/>
				</g>
			</g>
		</g>
	</g>
	<path class="st9" d="M77.3,0c4.9,0,8.9,4.1,8.9,9c0,4.9-4,8.9-8.9,8.9c-5,0-8.9-4.1-8.9-8.9C68.3,4.1,72.3,0,77.3,0z"/>
	<polygon class="st5" points="71.4,59.3 71.4,20.6 83.2,20.6 83.2,59.3 	"/>
	<path class="st3" d="M23,20.7c-4.2,0-8.1,1.4-11.3,3.7v-3.7H0v55h11.7v-20c3.2,2.3,7.1,3.7,11.3,3.7c10.7,0,19.3-8.6,19.3-19.3
		C42.3,29.3,33.7,20.7,23,20.7z M23,49.9c-5.5,0-9.9-4.4-9.9-9.9c0-5.5,4.4-9.9,9.9-9.9c5.5,0,9.9,4.4,9.9,9.9
		C32.9,45.4,28.5,49.9,23,49.9z"/>
	<path class="st1" d="M201.3,59.3c-4.1,0-7.2-1.4-9.3-4.1c-2.1-2.8-3-6.9-3-12.4v-22h5v21.1c0,8.7,3,13.1,8.9,13.1
		c1.4,0,2.9-0.3,4.3-0.8c1.4-0.5,2.7-1.2,3.9-2.1c1.2-0.9,2.3-2.1,3.2-3.3c1-1.3,1.7-2.7,2.3-4.3V20.7h4.9v31.9
		c0,1.4,0.6,2.1,1.8,2.1v4.5c-0.6,0.1-1,0.1-1.4,0.1c-0.3,0-0.6,0-0.8,0c-1.2-0.1-2.1-0.5-2.9-1.3c-0.7-0.8-1.1-1.8-1.1-3.2v-5
		c-1.7,3-3.9,5.3-6.8,6.9C207.6,58.4,204.5,59.3,201.3,59.3L201.3,59.3z"/>
	<polygon class="st1" points="252.5,59.3 238.4,40 230.1,47.7 230.1,59.3 225.2,59.3 225.2,5.9 230.1,5.9 230.1,42.5 252.4,20.7 
		258.1,20.7 241.7,37.1 257.9,59.3 	"/>
	<path class="st1" d="M292,52.5V36c0-4.8-1.4-8.5-4.1-11.2c-2.8-2.8-6.5-4.1-11.3-4.1c-4.7,0-9.4,1.7-14.4,5l1.7,3.3
		c2.1-1.5,4.2-2.6,6.3-3.4c2.1-0.8,4.1-1.2,6-1.2c3.4,0,6,1,7.9,3c1.9,2,2.9,4.7,2.9,8.1v2.3c-1.6-0.7-3.4-1.2-5.4-1.5
		c-2-0.3-4-0.5-6-0.5c-2.3,0-4.5,0.3-6.5,0.8c-1.9,0.5-3.6,1.4-5.1,2.4c-1.4,1-2.5,2.3-3.3,3.7c-0.8,1.4-1.2,3-1.2,4.6
		c0,1.6,0.3,3.2,1,4.7c0.6,1.5,1.5,2.8,2.7,3.8c1.2,1.1,2.5,1.9,4.1,2.5c1.5,0.6,3.2,1,5,1c3.1,0,6-0.6,8.7-1.9
		c2.7-1.2,4.9-3,6.6-5.3l0.2,3.5c0,1.1,0.4,2,1.1,2.6c0.8,0.7,1.7,1,3,1c0.5,0,1.1-0.1,1.9-0.2v-4.4C292.5,54.6,292,53.9,292,52.5z
		 M287,47.2c0,0.4-0.1,0.9-0.3,1.4c-0.2,0.5-0.5,1-1,1.5c-1.2,1.6-2.8,2.9-5,3.9c-2.1,1-4.5,1.4-7.2,1.4c-1.2,0-2.5-0.2-3.6-0.7
		c-1.2-0.4-2.1-1-2.9-1.8c-0.8-0.8-1.4-1.6-1.9-2.7c-0.5-1-0.7-2.1-0.7-3.3c0-2.4,1.1-4.4,3.3-5.8c2.2-1.4,5.1-2.2,8.6-2.2
		c1.9,0,3.6,0.1,5.4,0.5c1.9,0.4,3.6,0.8,5.2,1.5V47.2z"/>
	<path class="st6" d="M309.9,72c-1.1,0-1.9,0.8-1.9,1.8c0,1,0.8,1.8,1.9,1.8c1.1,0,1.9-0.8,1.9-1.8C311.8,72.8,311,72,309.9,72z
		 M309.9,35.2c-1.1,0-1.9,0.8-1.9,1.8c0,1,0.8,1.8,1.9,1.8c1.1,0,1.9-0.8,1.9-1.8C311.8,36,311,35.2,309.9,35.2z M310.9,63.9
		c-0.5-0.6-1.3-1-2.2-1.2l-0.2,1.4c0.7,0.1,1.2,0.3,1.6,0.7c0.3,0.4,0.5,0.8,0.5,1.4c0,0.7-0.3,1.3-0.8,1.7
		c-0.5,0.4-1.3,0.7-2.5,0.7c-1.1,0-1.9-0.2-2.4-0.7c-0.5-0.4-0.8-1-0.8-1.8c0-0.5,0.2-0.9,0.4-1.2c0.3-0.3,0.7-0.6,1.3-0.7l-0.2-1.4
		c-0.9,0.2-1.5,0.5-2,1.1c-0.5,0.6-0.7,1.3-0.7,2.2c0,0.7,0.2,1.4,0.5,2c0.3,0.6,0.8,1.1,1.5,1.4c0.7,0.3,1.5,0.5,2.4,0.5
		c1.4,0,2.5-0.3,3.2-1s1.1-1.6,1.1-2.8C311.8,65.3,311.5,64.6,310.9,63.9z M311.2,56.1c-0.3-0.6-0.8-1.1-1.4-1.4
		c-0.6-0.3-1.5-0.5-2.5-0.5c-1.3,0-2.4,0.4-3.1,1.1S303,57,303,58.2c0,1,0.3,1.9,0.9,2.6c0.8,0.9,1.9,1.3,3.4,1.3
		c1.4,0,2.5-0.4,3.3-1.1c0.8-0.7,1.1-1.7,1.1-2.8C311.7,57.4,311.6,56.7,311.2,56.1z M309.8,59.9c-0.5,0.5-1.3,0.7-2.4,0.7
		s-1.9-0.2-2.4-0.7c-0.5-0.5-0.8-1.1-0.8-1.8c0-0.7,0.3-1.3,0.8-1.8c0.5-0.5,1.3-0.7,2.4-0.7c1.1,0,1.9,0.2,2.5,0.7
		c0.5,0.5,0.8,1.1,0.8,1.8C310.6,58.9,310.3,59.5,309.8,59.9z M305.1,42.7c0.3-0.1,0.7-0.1,1.2-0.1h5.3v-1.4h-5.8
		c-1,0-1.7,0.2-2.1,0.7c-0.5,0.4-0.7,1.1-0.7,1.9c0,1.1,0.5,1.9,1.5,2.6c-0.5,0.2-0.8,0.4-1.1,0.8c-0.3,0.4-0.4,0.9-0.4,1.5
		c0,0.6,0.1,1.1,0.4,1.5c0.2,0.4,0.6,0.8,1,1h-1.2v1.3h8.4v-1.4h-4.4c-0.8,0-1.3-0.1-1.8-0.2c-0.4-0.2-0.7-0.4-0.9-0.7
		c-0.2-0.3-0.3-0.7-0.3-1.1c0-0.5,0.2-0.9,0.5-1.1c0.3-0.2,0.8-0.3,1.4-0.3h5.5v-1.4h-4.9c-0.9,0-1.5-0.2-1.9-0.6s-0.6-0.9-0.6-1.5
		c0-0.3,0.1-0.6,0.2-0.9C304.6,43,304.8,42.8,305.1,42.7z M305.2,27.6c0.3-0.1,0.7-0.2,1.3-0.2h5.1V26h-5.2c-0.7,0-1.1,0-1.4,0.1
		c-0.4,0.1-0.8,0.2-1,0.4c-0.3,0.2-0.5,0.5-0.7,1s-0.3,0.9-0.3,1.4c0,1.2,0.5,2,1.4,2.7h-1.2v1.3h8.4v-1.4H307
		c-1.1,0-1.8-0.2-2.2-0.7c-0.4-0.4-0.6-1-0.6-1.6c0-0.4,0.1-0.7,0.3-1C304.7,27.9,304.9,27.7,305.2,27.6z M314.5,18.7
		c-0.3-0.6-0.8-1-1.3-1.3c-0.5-0.3-1.5-0.4-2.8-0.4h-7.2v1.3h1c-0.8,0.6-1.2,1.5-1.2,2.5c0,0.7,0.2,1.4,0.5,1.9s0.9,1,1.6,1.3
		c0.7,0.3,1.4,0.4,2.2,0.4c1.2,0,2.2-0.3,3-1s1.3-1.5,1.3-2.7c0-0.9-0.4-1.7-1.1-2.3c0.9,0,1.5,0,1.8,0.1c0.5,0.1,0.8,0.4,1.1,0.7
		c0.3,0.4,0.4,0.9,0.4,1.5c0,0.6-0.1,1.1-0.4,1.5c-0.2,0.3-0.5,0.4-0.9,0.5l-0.2,1.4c0.9,0,1.6-0.3,2-0.9c0.5-0.6,0.7-1.4,0.7-2.4
		C315,20,314.8,19.3,314.5,18.7z M309.6,22.3c-0.5,0.4-1.3,0.6-2.4,0.6c-1,0-1.8-0.2-2.3-0.7s-0.8-1-0.8-1.6c0-0.6,0.3-1.2,0.8-1.6
		c0.5-0.5,1.3-0.7,2.3-0.7c1.1,0,1.8,0.2,2.4,0.7c0.5,0.4,0.8,1,0.8,1.7C310.4,21.3,310.1,21.9,309.6,22.3z"/>
	<path class="st6" d="M75.9,73.3c-0.7-0.7-1.6-1-2.6-1c-1,0-1.8,0.3-2.5,0.9c-0.8,0.7-1.2,1.8-1.2,3.2c0,1.3,0.3,2.3,1,3
		c0.7,0.7,1.5,1,2.6,1c0.7,0,1.3-0.2,1.9-0.5c0.6-0.3,1-0.8,1.3-1.3c0.3-0.6,0.5-1.4,0.5-2.4C76.9,75,76.6,74,75.9,73.3z M74.9,78.5
		c-0.4,0.5-1,0.7-1.6,0.7c-0.7,0-1.2-0.2-1.7-0.7C71.2,78,71,77.3,71,76.3c0-1,0.2-1.7,0.7-2.2c0.4-0.5,1-0.7,1.7-0.7
		c0.6,0,1.2,0.3,1.6,0.7c0.4,0.5,0.6,1.2,0.6,2.2C75.5,77.3,75.3,78,74.9,78.5z M81.3,72.2c-0.3,0-0.6,0.1-0.8,0.3
		c-0.3,0.2-0.5,0.5-0.8,1.1v-1.2h-1.2v7.8h1.3v-4.1c0-0.5,0.1-1.1,0.2-1.5c0.1-0.3,0.3-0.5,0.5-0.7c0.2-0.2,0.5-0.3,0.8-0.3
		c0.3,0,0.6,0.1,1,0.3l0.5-1.2C82.2,72.4,81.8,72.2,81.3,72.2z M88.4,69.5v3.9c-0.2-0.3-0.5-0.6-0.9-0.8c-0.4-0.2-0.8-0.3-1.3-0.3
		c-0.6,0-1.2,0.2-1.7,0.5c-0.5,0.3-0.9,0.8-1.2,1.5c-0.3,0.6-0.4,1.3-0.4,2.1c0,0.8,0.1,1.5,0.4,2.1c0.3,0.6,0.7,1.1,1.2,1.4
		c0.5,0.3,1.1,0.5,1.7,0.5c1,0,1.7-0.4,2.2-1.2v1h1.2V69.5H88.4z M87.9,78.6c-0.4,0.5-0.9,0.7-1.5,0.7c-0.6,0-1.1-0.2-1.5-0.7
		c-0.4-0.5-0.6-1.2-0.6-2.2c0-1,0.2-1.8,0.6-2.3c0.4-0.5,0.9-0.7,1.5-0.7c0.6,0,1.1,0.3,1.5,0.7c0.4,0.5,0.6,1.3,0.6,2.3
		C88.5,77.4,88.3,78.1,87.9,78.6z M98.5,76.3c0-1.3-0.3-2.3-1-3c-0.7-0.7-1.5-1.1-2.5-1.1c-1.1,0-1.9,0.4-2.6,1.1
		c-0.7,0.7-1,1.7-1,3c0,1.3,0.3,2.3,1,2.9c0.7,0.7,1.6,1,2.7,1c0.9,0,1.6-0.2,2.2-0.7c0.6-0.4,1-1.1,1.2-1.8l-1.4-0.2
		c-0.2,0.6-0.5,1-0.8,1.2c-0.3,0.3-0.8,0.4-1.2,0.4c-0.6,0-1.2-0.2-1.6-0.7c-0.4-0.5-0.7-1.1-0.7-2h5.8
		C98.5,76.5,98.5,76.4,98.5,76.3z M92.8,75.6c0-0.7,0.3-1.2,0.7-1.6c0.4-0.4,0.9-0.6,1.5-0.6c0.7,0,1.2,0.3,1.6,0.8
		c0.3,0.3,0.4,0.8,0.5,1.5H92.8z M103,72.2c-0.3,0-0.6,0.1-0.8,0.3s-0.5,0.5-0.8,1.1v-1.2h-1.2v7.8h1.3v-4.1c0-0.5,0.1-1.1,0.2-1.5
		c0.1-0.3,0.3-0.5,0.5-0.7c0.2-0.2,0.5-0.3,0.8-0.3c0.3,0,0.6,0.1,1,0.3l0.5-1.2C103.9,72.4,103.4,72.2,103,72.2z M115.6,74.2
		c-0.3-0.6-0.6-1.1-1.2-1.4c-0.5-0.3-1.1-0.5-1.8-0.5c-0.5,0-0.9,0.1-1.3,0.3c-0.3,0.2-0.7,0.5-1,0.9v-1h-1.2v10.8h1.3v-3.8
		c0.2,0.3,0.5,0.5,0.9,0.7c0.3,0.2,0.7,0.3,1.2,0.3c0.6,0,1.2-0.2,1.7-0.5c0.5-0.3,1-0.8,1.2-1.5c0.3-0.6,0.4-1.3,0.4-2.1
		C116,75.5,115.9,74.8,115.6,74.2z M114,78.5c-0.4,0.5-0.9,0.7-1.5,0.7c-0.6,0-1.1-0.2-1.5-0.7c-0.4-0.5-0.6-1.2-0.6-2.2
		c0-1,0.2-1.8,0.6-2.3c0.4-0.5,0.9-0.8,1.5-0.8c0.6,0,1,0.2,1.5,0.7c0.4,0.5,0.6,1.2,0.6,2.2C114.7,77.3,114.5,78,114,78.5z
		 M120.5,72.2c-0.3,0-0.6,0.1-0.8,0.3c-0.3,0.2-0.5,0.5-0.8,1.1v-1.2h-1.2v7.8h1.3v-4.1c0-0.5,0.1-1.1,0.2-1.5
		c0.1-0.3,0.3-0.5,0.5-0.7c0.2-0.2,0.5-0.3,0.8-0.3c0.3,0,0.6,0.1,1,0.3l0.5-1.2C121.3,72.4,120.9,72.2,120.5,72.2z M122.6,69.5V71
		h1.3v-1.5H122.6z M122.6,72.4v7.8h1.3v-7.8H122.6z M132.2,74.1c-0.1-0.4-0.2-0.7-0.4-1c-0.2-0.3-0.5-0.5-0.9-0.7
		c-0.4-0.2-0.8-0.3-1.3-0.3c-1.1,0-1.9,0.4-2.5,1.3v-1.1h-1.2v7.8h1.3v-4.3c0-1,0.2-1.7,0.6-2c0.4-0.4,0.9-0.5,1.5-0.5
		c0.4,0,0.7,0.1,0.9,0.2c0.3,0.2,0.4,0.4,0.5,0.6c0.1,0.3,0.1,0.7,0.1,1.2v4.7h1.3v-4.8C132.2,74.8,132.2,74.4,132.2,74.1z
		 M137.1,79c-0.2,0-0.4,0.1-0.6,0.1c-0.2,0-0.3,0-0.4-0.1c-0.1-0.1-0.2-0.2-0.2-0.3c0-0.1-0.1-0.3-0.1-0.7v-4.6h1.3v-1h-1.3v-2.7
		l-1.3,0.8v1.9h-1v1h1v4.5c0,0.8,0.1,1.3,0.2,1.6s0.3,0.4,0.5,0.6c0.3,0.2,0.6,0.2,1.1,0.2c0.3,0,0.6,0,1-0.1L137.1,79z M155.8,73.3
		c-0.7-0.7-1.5-1-2.6-1c-1,0-1.8,0.3-2.4,0.9c-0.8,0.7-1.2,1.8-1.2,3.2c0,1.3,0.3,2.3,1,3c0.7,0.7,1.5,1,2.6,1
		c0.7,0,1.3-0.2,1.9-0.5c0.6-0.3,1-0.8,1.3-1.3c0.3-0.6,0.5-1.4,0.5-2.4C156.9,75,156.5,74,155.8,73.3z M154.9,78.5
		c-0.4,0.5-1,0.7-1.6,0.7c-0.7,0-1.2-0.2-1.6-0.7c-0.4-0.5-0.7-1.2-0.7-2.2c0-1,0.2-1.7,0.7-2.2c0.4-0.5,1-0.7,1.6-0.7
		c0.7,0,1.2,0.3,1.6,0.7s0.7,1.2,0.7,2.2C155.5,77.3,155.3,78,154.9,78.5z M164.7,74.1c-0.1-0.4-0.2-0.7-0.4-1
		c-0.2-0.3-0.5-0.5-0.9-0.7c-0.4-0.2-0.8-0.3-1.3-0.3c-1.1,0-1.9,0.4-2.5,1.3v-1.1h-1.2v7.8h1.3v-4.3c0-1,0.2-1.7,0.6-2
		c0.4-0.4,0.9-0.5,1.4-0.5c0.4,0,0.7,0.1,0.9,0.2c0.3,0.2,0.4,0.4,0.5,0.6c0.1,0.3,0.2,0.7,0.2,1.2v4.7h1.3v-4.8
		C164.7,74.8,164.7,74.4,164.7,74.1z M166.7,69.5v10.7h1.3V69.5H166.7z M170.1,69.5V71h1.3v-1.5H170.1z M170.1,72.4v7.8h1.3v-7.8
		H170.1z M179.6,74.1c-0.1-0.4-0.2-0.7-0.4-1c-0.2-0.3-0.5-0.5-0.9-0.7c-0.4-0.2-0.8-0.3-1.3-0.3c-1.1,0-1.9,0.4-2.5,1.3v-1.1h-1.2
		v7.8h1.3v-4.3c0-1,0.2-1.7,0.6-2c0.4-0.4,0.9-0.5,1.5-0.5c0.3,0,0.7,0.1,0.9,0.2c0.3,0.2,0.4,0.4,0.5,0.6c0.1,0.3,0.2,0.7,0.2,1.2
		v4.7h1.3v-4.8C179.7,74.8,179.7,74.4,179.6,74.1z M188.5,76.3c0-1.3-0.3-2.3-1-3c-0.7-0.7-1.5-1.1-2.5-1.1c-1.1,0-2,0.4-2.6,1.1
		c-0.7,0.7-1,1.7-1,3c0,1.3,0.3,2.3,1,2.9c0.7,0.7,1.6,1,2.7,1c0.9,0,1.6-0.2,2.2-0.7c0.6-0.4,1-1.1,1.2-1.8l-1.4-0.2
		c-0.2,0.6-0.5,1-0.8,1.2c-0.3,0.3-0.8,0.4-1.2,0.4c-0.7,0-1.2-0.2-1.6-0.7c-0.4-0.5-0.7-1.1-0.7-2h5.8V76.3z M182.7,75.6
		c0.1-0.7,0.3-1.2,0.7-1.6c0.4-0.4,0.9-0.6,1.5-0.6c0.7,0,1.2,0.3,1.6,0.8c0.3,0.3,0.4,0.8,0.5,1.5H182.7z M202.7,72.4l-1.3,4.5
		l-0.4,1.5l-0.4-1.5l-1.2-4.5H198l-1.2,4.6c-0.3,1-0.4,1.5-0.4,1.6l-0.4-1.7l-1.2-4.5h-1.4l2.4,7.8h1.4l1.6-6l0.3,1.3l1.2,4.6h1.4
		l2.4-7.8H202.7z M205.1,69.5V71h1.3v-1.5H205.1z M205.1,72.4v7.8h1.3v-7.8H205.1z M211.3,79c-0.2,0-0.4,0.1-0.6,0.1
		c-0.2,0-0.3,0-0.5-0.1c-0.1-0.1-0.2-0.2-0.2-0.3c0-0.1-0.1-0.3-0.1-0.7v-4.6h1.3v-1h-1.3v-2.7l-1.3,0.8v1.9h-1v1h1v4.5
		c0,0.8,0,1.3,0.2,1.6c0.1,0.3,0.3,0.4,0.5,0.6c0.3,0.2,0.6,0.2,1.1,0.2c0.3,0,0.6,0,1-0.1L211.3,79z M218.6,73.5
		c-0.2-0.4-0.5-0.7-0.9-0.9c-0.4-0.2-0.9-0.3-1.5-0.3c-0.9,0-1.7,0.4-2.3,1.1v-3.9h-1.3v10.7h1.3v-4.3c0-0.6,0.1-1.1,0.2-1.4
		c0.1-0.3,0.4-0.6,0.7-0.8c0.3-0.2,0.7-0.3,1.1-0.3c0.5,0,0.9,0.2,1.2,0.5c0.3,0.3,0.4,0.8,0.4,1.4v4.9h1.3v-4.9
		C218.9,74.5,218.8,73.9,218.6,73.5z M231.8,76.3c0-1.3-0.3-2.3-1-3c-0.7-0.7-1.5-1.1-2.5-1.1c-1.1,0-1.9,0.4-2.6,1.1
		c-0.7,0.7-1,1.7-1,3c0,1.3,0.3,2.3,1,2.9c0.7,0.7,1.6,1,2.7,1c0.9,0,1.6-0.2,2.2-0.7c0.6-0.4,1-1.1,1.2-1.8l-1.4-0.2
		c-0.2,0.6-0.5,1-0.8,1.2c-0.3,0.3-0.8,0.4-1.2,0.4c-0.6,0-1.2-0.2-1.6-0.7c-0.4-0.5-0.7-1.1-0.7-2h5.8
		C231.8,76.5,231.8,76.4,231.8,76.3z M226,75.6c0.1-0.7,0.3-1.2,0.7-1.6c0.4-0.4,0.9-0.6,1.5-0.6c0.7,0,1.2,0.3,1.6,0.8
		c0.3,0.3,0.4,0.8,0.5,1.5H226z M239.8,79.2c-0.1-0.3-0.1-1.1-0.1-2.3v-1.8c0-0.6,0-1-0.1-1.2c-0.1-0.4-0.2-0.7-0.4-0.9
		c-0.2-0.2-0.5-0.4-0.9-0.6c-0.4-0.2-1-0.2-1.6-0.2s-1.3,0.1-1.8,0.3c-0.5,0.2-0.9,0.5-1.2,0.8c-0.3,0.3-0.5,0.8-0.6,1.3l1.3,0.2
		c0.1-0.5,0.4-0.9,0.7-1.1c0.3-0.2,0.8-0.3,1.4-0.3c0.7,0,1.2,0.2,1.5,0.4c0.3,0.2,0.4,0.6,0.4,1.1c0,0,0,0.2,0,0.3
		c-0.5,0.2-1.3,0.3-2.4,0.5c-0.5,0.1-0.9,0.1-1.2,0.2c-0.4,0.1-0.7,0.2-1,0.4c-0.3,0.2-0.5,0.4-0.7,0.8c-0.2,0.3-0.3,0.7-0.3,1
		c0,0.6,0.2,1.2,0.7,1.6c0.5,0.4,1.1,0.6,2,0.6c0.5,0,1-0.1,1.5-0.3c0.5-0.2,0.9-0.5,1.4-0.9c0,0.4,0.1,0.7,0.3,1h1.4
		C239.9,79.9,239.8,79.6,239.8,79.2z M238.4,76.8c0,0.6-0.1,1-0.2,1.3c-0.2,0.4-0.5,0.7-0.9,0.9c-0.4,0.2-0.9,0.3-1.4,0.3
		c-0.5,0-0.9-0.1-1.2-0.3s-0.4-0.5-0.4-0.9c0-0.2,0.1-0.4,0.2-0.6c0.1-0.2,0.3-0.3,0.5-0.4c0.2-0.1,0.6-0.2,1.2-0.3
		c1-0.1,1.7-0.3,2.2-0.5L238.4,76.8z M247.3,76.8c-0.2-0.3-0.5-0.5-0.9-0.7c-0.4-0.2-1-0.4-1.9-0.6c-0.6-0.2-1-0.3-1.2-0.3
		c-0.2-0.1-0.4-0.2-0.5-0.3c-0.1-0.1-0.2-0.3-0.2-0.5c0-0.3,0.1-0.5,0.4-0.7c0.3-0.2,0.7-0.3,1.3-0.3c0.5,0,0.9,0.1,1.2,0.3
		c0.3,0.2,0.5,0.5,0.5,1l1.3-0.2c-0.1-0.5-0.2-0.9-0.5-1.2c-0.2-0.3-0.6-0.5-1-0.7c-0.5-0.2-1-0.3-1.6-0.3c-0.4,0-0.8,0.1-1.1,0.2
		c-0.4,0.1-0.6,0.2-0.8,0.4c-0.3,0.2-0.5,0.4-0.7,0.7c-0.2,0.3-0.2,0.6-0.2,1c0,0.4,0.1,0.7,0.3,1c0.2,0.3,0.5,0.6,0.8,0.7
		c0.4,0.2,1,0.4,2,0.6c0.7,0.2,1.2,0.3,1.3,0.5c0.3,0.2,0.4,0.4,0.4,0.7c0,0.3-0.2,0.6-0.4,0.9c-0.3,0.2-0.7,0.4-1.3,0.4
		c-0.6,0-1.1-0.1-1.4-0.4c-0.3-0.3-0.5-0.7-0.6-1.2l-1.3,0.2c0.1,0.8,0.5,1.4,1,1.9c0.5,0.4,1.3,0.6,2.3,0.6c0.6,0,1.2-0.1,1.6-0.3
		c0.5-0.2,0.9-0.5,1.1-0.9c0.3-0.4,0.4-0.8,0.4-1.2C247.7,77.4,247.5,77.1,247.3,76.8z M255.9,76.3c0-1.3-0.3-2.3-1-3
		c-0.7-0.7-1.5-1.1-2.5-1.1c-1.1,0-1.9,0.4-2.6,1.1c-0.7,0.7-1,1.7-1,3c0,1.3,0.3,2.3,1,2.9c0.7,0.7,1.6,1,2.7,1
		c0.9,0,1.6-0.2,2.2-0.7c0.6-0.4,1-1.1,1.2-1.8l-1.4-0.2c-0.2,0.6-0.5,1-0.8,1.2c-0.3,0.3-0.8,0.4-1.2,0.4c-0.6,0-1.2-0.2-1.6-0.7
		c-0.4-0.5-0.7-1.1-0.7-2h5.8C255.9,76.5,255.9,76.4,255.9,76.3z M250.2,75.6c0-0.7,0.3-1.2,0.7-1.6c0.4-0.4,0.9-0.6,1.5-0.6
		c0.7,0,1.2,0.3,1.6,0.8c0.3,0.3,0.4,0.8,0.5,1.5H250.2z M257.8,69.5v2.4l0.4,5.7h0.8l0.4-5.7v-2.4H257.8z M257.9,78.7v1.5h1.5v-1.5
		H257.9z M144,76.8c-0.2-0.3-0.5-0.5-0.9-0.7c-0.4-0.2-1-0.4-1.9-0.6c-0.6-0.2-1-0.3-1.2-0.3c-0.2-0.1-0.4-0.2-0.5-0.3
		c-0.1-0.1-0.2-0.3-0.2-0.5c0-0.3,0.1-0.5,0.4-0.7c0.3-0.2,0.7-0.3,1.3-0.3c0.5,0,0.9,0.1,1.2,0.3c0.3,0.2,0.4,0.5,0.5,1l1.3-0.2
		c-0.1-0.5-0.2-0.9-0.5-1.2c-0.2-0.3-0.6-0.5-1-0.7c-0.5-0.2-1-0.3-1.6-0.3c-0.4,0-0.8,0.1-1.1,0.2c-0.4,0.1-0.6,0.2-0.8,0.4
		c-0.3,0.2-0.5,0.4-0.7,0.7c-0.1,0.3-0.2,0.6-0.2,1c0,0.4,0.1,0.7,0.3,1c0.2,0.3,0.5,0.6,0.8,0.7c0.4,0.2,1,0.4,2,0.6
		c0.7,0.2,1.2,0.3,1.3,0.5c0.3,0.2,0.4,0.4,0.4,0.7c0,0.3-0.1,0.6-0.4,0.9c-0.3,0.2-0.7,0.4-1.3,0.4c-0.6,0-1.1-0.1-1.4-0.4
		c-0.3-0.3-0.5-0.7-0.6-1.2l-1.3,0.2c0.1,0.8,0.5,1.4,1,1.9c0.5,0.4,1.3,0.6,2.3,0.6c0.6,0,1.2-0.1,1.6-0.3c0.5-0.2,0.9-0.5,1.1-0.9
		c0.3-0.4,0.4-0.8,0.4-1.2C144.3,77.4,144.2,77.1,144,76.8z"/>
</g>
</svg>
