<?xml version="1.0" encoding="UTF-8"?>
<!DOCTYPE svg PUBLIC "-//W3C//DTD SVG 1.1//EN" "http://www.w3.org/Graphics/SVG/1.1/DTD/svg11.dtd">
<!-- Creator: CorelDRAW -->
<svg xmlns="http://www.w3.org/2000/svg" xml:space="preserve" width="4.37446in" height="1.15514in" version="1.1" style="shape-rendering:geometricPrecision; text-rendering:geometricPrecision; image-rendering:optimizeQuality; fill-rule:evenodd; clip-rule:evenodd"
viewBox="0 0 3700.95 977.29"
 xmlns:xlink="http://www.w3.org/1999/xlink"
 xmlns:xodm="http://www.corel.com/coreldraw/odm/2003">
 <defs>
  <style type="text/css">
   <![CDATA[
    .str0 {stroke:#373435;stroke-width:2.54;stroke-miterlimit:2.61313}
    .fil8 {fill:none}
    .fil2 {fill:#FEFEFE}
    .fil7 {fill:#201E1E}
    .fil4 {fill:#00AFEF}
    .fil6 {fill:#EC268F}
    .fil1 {fill:#FEFEFE;fill-rule:nonzero}
    .fil9 {fill:#FEFEFE;fill-rule:nonzero}
    .fil5 {fill:#FFD526;fill-rule:nonzero}
    .fil3 {fill:#ED3237;fill-rule:nonzero}
    .fil0 {fill:#EC268F;fill-rule:nonzero}
   ]]>
  </style>
    <clipPath id="id0">
     <path d="M907.77 0c58.16,0 105.02,47.66 105.02,105.83 0,57.36 -46.86,105.02 -105.02,105.02 -58.17,0 -105.02,-47.66 -105.02,-105.02 0,-58.16 46.86,-105.83 105.02,-105.83z"/>
    </clipPath>
 </defs>
 <g id="Layer_x0020_1">
  <metadata id="CorelCorpID_0Corel-Layer"/>
  <g id="_2274897580432">
   <path class="fil0" d="M656.37 243.2l-105.02 0 -24.39 0 0 453.27 24.39 0 113.76 0 0.15 0 0 -182.67c0,-75.94 42.01,-102.6 100.17,-102.6 14.54,0 26.66,0.81 43.62,3.23l0 -171.36c-60.07,0 -109.92,15.74 -143.95,48.94l0 -48.81 -8.74 0z"/>
   <path class="fil1" d="M1443.54 696.36l-138.14 0 0 -253.66c0,-29.89 -5.66,-51.7 -16.16,-65.43 -11.31,-13.74 -26.66,-20.2 -44.43,-20.2 -10.5,0 -20.19,1.62 -29.89,5.66 -9.69,4.04 -19.39,9.69 -28.28,16.96 -9.69,7.27 -17.77,16.16 -25.04,25.85 -6.47,9.7 -12.12,20.2 -16.16,31.51l0 259.32 -138.14 0 0 -453.2 123.6 0 0 76.74c16.97,-27.47 40.39,-48.47 71.09,-63.01 30.7,-14.54 65.43,-22.62 105.83,-22.62 29.08,0 52.51,5.65 70.28,16.15 17.77,11.31 31.51,25.04 42.01,42.01 9.7,16.96 16.16,35.55 19.39,55.74 3.23,20.2 4.04,39.59 4.04,58.97l0 289.21z"/>
   <path class="fil2" d="M1771.69 31.51l65.84 0 0 298.05c37.24,-52.75 95.01,-86.63 159.88,-86.63 112.31,0 203.36,101.53 203.36,226.79 0,125.25 -91.05,226.79 -203.36,226.79 -64.87,0 -122.65,-33.87 -159.88,-86.62l0 86.13 -65.84 0 0 -664.51zm225.72 266.26c85.15,0 154.18,76.98 154.18,171.95 0,94.97 -69.03,171.95 -154.18,171.95 -85.15,0 -154.18,-76.98 -154.18,-171.95 0,-94.97 69.03,-171.95 154.18,-171.95z"/>
   <path class="fil3" d="M1796.73 663.25c-19.39,8.08 -41.2,15.35 -65.43,22.62 -24.24,7.27 -49.28,10.5 -73.52,10.5 -17.77,0 -33.93,-2.42 -49.28,-6.46 -15.35,-4.85 -28.28,-11.31 -40.39,-21 -11.31,-9.69 -20.19,-21.81 -26.66,-37.97 -6.47,-15.35 -9.7,-33.93 -9.7,-55.74l0 -225.4 -58.17 0 0 -105.02 58.17 0 0 -144.61 138.14 0 0 144.61 92.09 0 0 105.02 -92.09 0 0 177.74c0,14.54 3.23,25.85 10.5,32.32 8.08,6.46 16.96,9.69 29.08,9.69 10.5,0 21,-1.62 31.51,-4.85 11.31,-3.23 21,-7.27 29.08,-11.31l26.66 109.87z"/>
   <path class="fil4" d="M907.77 0c58.16,0 105.02,47.66 105.02,105.83 0,57.36 -46.86,105.02 -105.02,105.02 -58.17,0 -105.02,-47.66 -105.02,-105.02 0,-58.16 46.86,-105.83 105.02,-105.83z"/>
   <g>
   </g>
   <g style="clip-path:url(#id0)">
    <g>
     <rect class="fil5" x="906.93" y="108.86" width="120.82" height="135.94"/>
     <rect class="fil6" x="906.93" y="-27.09" width="120.82" height="135.94"/>
     <rect class="fil7" x="787.88" y="108.86" width="119.05" height="134.56"/>
     <line class="fil8 str0" x1="906.93" y1="253.08" x2="906.93" y2= "219.96" />
     <g>
      <rect class="fil2" x="902.73" y="-15.9" width="10.09" height="242.64"/>
      <rect class="fil2" transform="matrix(9.0973E-14 -3.43495 3.43495 9.0973E-14 786.456 110.466)" width="2.94" height="70.64"/>
     </g>
    </g>
   </g>
   <path class="fil8" d="M907.77 0c58.16,0 105.02,47.66 105.02,105.83 0,57.36 -46.86,105.02 -105.02,105.02 -58.17,0 -105.02,-47.66 -105.02,-105.02 0,-58.16 46.86,-105.83 105.02,-105.83z"/>
   <polygon class="fil5" points="839.1,696.36 839.1,241.54 977.25,241.54 977.25,696.36 "/>
   <path class="fil4" d="M270.14 243.15c125.24,0 226.77,101.52 226.77,226.77 0,125.24 -101.53,226.76 -226.77,226.76 -49.73,0 -95.7,-16.02 -133.08,-43.15l0 235.23 -137.06 0 0 -645.62 137.06 0 0 43.15c37.38,-27.14 83.35,-43.15 133.08,-43.15zm0 110.58c64.17,0 116.19,52.02 116.19,116.19 0,64.16 -52.02,116.18 -116.19,116.18 -64.17,0 -116.18,-52.02 -116.18,-116.18 0,-64.17 52.02,-116.19 116.18,-116.19z"/>
   <path class="fil9" d="M2365.56 696.27c-48.47,0 -84.82,-16.16 -109.06,-48.47 -24.24,-33.12 -35.55,-81.6 -35.55,-146.22l0 -258.41 58.17 0 0 247.91c0,102.6 34.74,153.49 105.02,153.49 16.96,0 33.93,-3.23 50.9,-8.89 16.15,-5.66 32.31,-13.73 46.05,-25.04 13.73,-10.5 26.66,-24.24 37.97,-38.78 11.31,-15.35 20.2,-32.31 27.47,-50.9l0 -277.8 58.16 0 0 374.81c0,16.16 7.27,24.24 21,24.24l0 52.51c-7.27,0.81 -12.12,1.62 -16.96,1.62 -4.04,0 -7.27,0 -8.89,0 -13.73,-0.81 -25.04,-5.66 -33.93,-15.35 -8.08,-8.89 -12.92,-21 -12.92,-37.16l0 -58.24c-19.39,35.55 -46.05,62.21 -79.98,81.6 -33.12,19.39 -69.47,29.08 -107.45,29.08z"/>
   <polygon class="fil9" points="2966.59,696.31 2800.99,470.17 2704.04,560.65 2704.04,696.31 2645.88,696.31 2645.88,69.47 2704.04,69.47 2704.04,499.25 2965.98,242.97 3032.22,242.97 2839.76,436.24 3030.41,696.31 "/>
   <path class="fil9" d="M3199.94 696.36c-21,0 -41.2,-4.04 -58.97,-11.31 -18.58,-7.27 -33.93,-16.96 -47.66,-29.89 -13.74,-12.12 -24.24,-27.47 -31.51,-44.43 -7.27,-16.97 -11.31,-35.55 -11.31,-54.94 0,-19.39 4.85,-37.97 13.73,-54.13 9.7,-16.96 22.62,-31.51 38.78,-43.62 16.96,-12.12 37.16,-21.81 59.78,-28.27 23.43,-6.47 48.47,-9.7 75.94,-9.7 23.43,0 46.86,1.62 70.28,5.66 23.43,4.04 44.43,9.69 63.01,17.77l0 -26.65c0,-39.58 -11.31,-71.09 -33.93,-94.52 -22.62,-23.43 -53.32,-35.55 -92.9,-35.55 -23.43,0 -46.86,4.85 -71.09,14.54 -24.24,8.89 -48.47,21.81 -73.52,39.58l-20.19 -38.77c58.17,-39.59 113.91,-58.98 168.84,-58.98 56.55,0 100.98,15.35 133.3,47.66 32.31,31.51 48.47,75.13 48.47,131.68l0 194.68c0,16.16 6.46,24.24 21,24.24l0 51.7c-9.7,1.62 -16.97,2.42 -22.62,2.42 -14.54,0 -25.85,-3.23 -34.74,-11.31 -8.08,-7.27 -12.93,-17.77 -12.93,-30.7l-2.42 -41.2c-20.19,26.66 -46.05,47.66 -77.55,62.2 -31.51,14.54 -65.44,21.81 -101.79,21.81l0 0zm13.73 -45.24c30.7,0 58.98,-5.66 84.02,-16.97 25.85,-12.12 45.24,-27.47 58.97,-46.05 4.85,-5.66 8.89,-11.31 11.31,-16.97 2.42,-6.46 4.04,-12.12 4.04,-16.96l0 -73.52c-19.39,-8.08 -39.59,-13.73 -61.4,-17.77 -21,-4.04 -42.01,-5.66 -63.82,-5.66 -41.2,0 -75.13,8.89 -100.98,25.85 -25.85,16.96 -38.77,40.39 -38.77,68.67 0,13.73 2.42,26.66 8.08,38.77 5.66,12.12 12.93,22.62 22.62,31.51 8.89,8.89 20.19,16.16 33.93,21 12.92,5.66 27.47,8.08 42.01,8.08z"/>
   <path class="fil9" d="M3619.59 867.52c0,12.14 9.1,21.24 21.92,21.24 13.15,0 22.59,-9.1 22.59,-21.24 0,-12.14 -9.44,-21.24 -22.59,-21.24 -12.81,0 -21.92,9.11 -21.92,21.24zm0 -432.29c0,12.14 9.1,21.24 21.92,21.24 13.15,0 22.59,-9.1 22.59,-21.24 0,-12.14 -9.44,-21.24 -22.59,-21.24 -12.81,0 -21.92,9.11 -21.92,21.24zm5.39 318.62l2.28 -16.33c11.23,1.8 20.01,6.36 26.37,13.74 6.36,7.37 9.53,16.46 9.53,27.19 0,13.45 -4.4,24.28 -13.2,32.44 -8.8,8.2 -21.4,12.28 -37.8,12.28 -10.64,0 -19.91,-1.77 -27.89,-5.29 -7.94,-3.51 -13.93,-8.86 -17.88,-16.08 -3.99,-7.18 -5.98,-15 -5.98,-23.49 0,-10.67 2.69,-19.44 8.1,-26.21 5.41,-6.8 13.1,-11.17 23.04,-13.07l2.47 16.14c-6.62,1.55 -11.58,4.27 -14.94,8.23 -3.32,3.92 -5,8.67 -5,14.24 0,8.42 3.01,15.26 9.02,20.54 6.05,5.25 15.54,7.88 28.58,7.88 13.23,0 22.82,-2.53 28.8,-7.6 5.98,-5.1 8.99,-11.71 8.99,-19.85 0,-6.59 -2,-12.06 -6.02,-16.43 -3.99,-4.4 -10.16,-7.18 -18.48,-8.36zm-13.2 -24.31c-18.2,0 -31.68,-5.06 -40.45,-15.22 -7.28,-8.45 -10.92,-18.8 -10.92,-30.99 0,-13.51 4.43,-24.59 13.29,-33.2 8.83,-8.58 21.08,-12.88 36.69,-12.88 12.66,0 22.6,1.9 29.85,5.7 7.25,3.8 12.88,9.34 16.9,16.62 4.02,7.25 6.01,15.19 6.01,23.77 0,13.8 -4.4,24.94 -13.23,33.46 -8.83,8.51 -21.55,12.75 -38.14,12.75zm0.03 -17.09c12.6,0 22.03,-2.75 28.27,-8.26 6.27,-5.54 9.4,-12.47 9.4,-20.86 0,-8.29 -3.13,-15.19 -9.43,-20.73 -6.3,-5.51 -15.89,-8.26 -28.77,-8.26 -12.15,0 -21.36,2.78 -27.6,8.32 -6.27,5.54 -9.4,12.44 -9.4,20.67 0,8.39 3.1,15.32 9.34,20.86 6.24,5.51 15.64,8.26 28.2,8.26zm49.25 -94.8l-98.57 0 0 -15 13.93 0c-4.81,-3.07 -8.7,-7.19 -11.61,-12.31 -2.94,-5.13 -4.4,-10.95 -4.4,-17.5 0,-7.28 1.52,-13.26 4.53,-17.92 3.04,-4.65 7.25,-7.94 12.69,-9.84 -11.49,-7.85 -17.22,-18.01 -17.22,-30.54 0,-9.81 2.69,-17.38 8.1,-22.63 5.41,-5.29 13.74,-7.94 24.97,-7.94l67.58 0 0 16.71 -62.04 0c-6.65,0 -11.46,0.57 -14.4,1.65 -2.94,1.08 -5.29,3.04 -7.09,5.92 -1.81,2.85 -2.69,6.2 -2.69,10.03 0,6.96 2.31,12.72 6.9,17.31 4.62,4.59 11.99,6.87 22.12,6.87l57.2 0 0 16.71 -63.97 0c-7.41,0 -12.98,1.36 -16.68,4.08 -3.7,2.72 -5.57,7.18 -5.57,13.36 0,4.68 1.24,9.02 3.7,13.01 2.47,3.99 6.08,6.87 10.86,8.67 4.75,1.77 11.61,2.66 20.57,2.66l51.09 0 0 16.71zm0 -231.71l-98.57 0 0 -15 13.99 0c-10.73,-7.22 -16.08,-17.66 -16.08,-31.31 0,-5.95 1.08,-11.39 3.2,-16.36 2.12,-4.97 4.94,-8.7 8.39,-11.17 3.45,-2.47 7.56,-4.21 12.31,-5.19 3.1,-0.6 8.51,-0.92 16.24,-0.92l60.52 0 0 16.71 -59.89 0c-6.8,0 -11.9,0.63 -15.26,1.93 -3.35,1.3 -6.05,3.61 -8.07,6.9 -2,3.29 -3.01,7.18 -3.01,11.61 0,7.09 2.25,13.2 6.77,18.36 4.49,5.16 13.07,7.72 25.67,7.72l53.78 0 0 16.71zm8.17 -102.55l2.28 -16.14c5,-0.66 8.64,-2.56 10.95,-5.67 3.07,-4.15 4.62,-9.81 4.62,-17 0,-7.72 -1.55,-13.71 -4.62,-17.91 -3.07,-4.21 -7.41,-7.06 -12.95,-8.55 -3.39,-0.86 -10.51,-1.27 -21.36,-1.2 8.61,7.31 12.91,16.39 12.91,27.28 0,13.55 -4.87,24.06 -14.66,31.46 -9.75,7.44 -21.46,11.14 -35.1,11.14 -9.4,0 -18.08,-1.71 -26.02,-5.1 -7.94,-3.39 -14.05,-8.32 -18.39,-14.78 -4.34,-6.46 -6.49,-14.05 -6.49,-22.79 0,-11.61 4.75,-21.21 14.24,-28.74l-12.15 0 0 -15.39 85.11 0c15.35,0 26.21,1.55 32.6,4.69 6.4,3.1 11.46,8.07 15.16,14.81 3.7,6.77 5.57,15.1 5.57,24.97 0,11.74 -2.63,21.21 -7.91,28.42 -5.26,7.25 -13.2,10.73 -23.8,10.48zm-59.13 -13.68c12.88,0 22.28,-2.56 28.2,-7.69 5.92,-5.16 8.9,-11.58 8.9,-19.31 0,-7.69 -2.94,-14.12 -8.83,-19.34 -5.89,-5.19 -15.13,-7.78 -27.73,-7.78 -12.03,0 -21.11,2.69 -27.22,8.04 -6.11,5.35 -9.15,11.81 -9.15,19.34 0,7.44 3.01,13.74 9.02,18.96 6.01,5.19 14.94,7.78 26.81,7.78z"/>
   <path class="fil9" d="M818.06 896.55c0,-16.88 4.7,-29.38 14.12,-37.51 7.84,-6.75 17.43,-10.13 28.74,-10.13 12.53,0 22.81,4.11 30.79,12.33 7.95,8.19 11.94,19.55 11.94,34.02 0,11.74 -1.76,20.96 -5.28,27.68 -3.52,6.72 -8.66,11.94 -15.41,15.67 -6.72,3.73 -14.09,5.58 -22.04,5.58 -12.8,0 -23.13,-4.08 -31.02,-12.27 -7.89,-8.19 -11.83,-19.99 -11.83,-35.37zm15.85 0.03c0,11.68 2.55,20.43 7.66,26.21 5.14,5.81 11.56,8.72 19.34,8.72 7.69,0 14.09,-2.91 19.23,-8.75 5.11,-5.84 7.66,-14.74 7.66,-26.68 0,-11.27 -2.58,-19.81 -7.72,-25.59 -5.14,-5.81 -11.53,-8.72 -19.17,-8.72 -7.78,0 -14.21,2.88 -19.34,8.66 -5.11,5.78 -7.66,14.5 -7.66,26.15zm87.73 45.67l0 -91.4 13.91 0 0 14c3.55,-6.49 6.84,-10.77 9.86,-12.83 3.02,-2.08 6.34,-3.11 9.95,-3.11 5.23,0 10.54,1.65 15.94,4.9l-5.52 14.29c-3.76,-2.11 -7.51,-3.17 -11.27,-3.17 -3.37,0 -6.4,1.03 -9.07,3.05 -2.67,2.03 -4.58,4.84 -5.72,8.45 -1.73,5.49 -2.58,11.5 -2.58,18.05l0 47.75 -15.5 0zm117.81 0l0 -11.59c-5.78,9.01 -14.29,13.53 -25.53,13.53 -7.28,0 -13.97,-2 -20.05,-6.02 -6.1,-3.99 -10.83,-9.6 -14.2,-16.76 -3.35,-7.19 -5.02,-15.44 -5.02,-24.77 0,-9.1 1.53,-17.34 4.55,-24.77 3.05,-7.39 7.6,-13.09 13.68,-17.02 6.05,-3.96 12.85,-5.93 20.34,-5.93 5.52,0 10.42,1.18 14.71,3.49 4.29,2.32 7.78,5.37 10.48,9.1l0 -45.35 15.5 0 0 126.09 -14.44 0zm-48.96 -45.58c0,11.68 2.46,20.4 7.43,26.18 4.93,5.78 10.77,8.66 17.49,8.66 6.78,0 12.53,-2.76 17.29,-8.28 4.72,-5.52 7.1,-13.94 7.1,-25.27 0,-12.44 -2.41,-21.6 -7.25,-27.44 -4.81,-5.84 -10.77,-8.75 -17.84,-8.75 -6.9,0 -12.65,2.79 -17.29,8.39 -4.61,5.61 -6.93,14.44 -6.93,26.5zm150.25 16l16.02 2.11c-2.49,9.3 -7.16,16.55 -13.97,21.69 -6.81,5.14 -15.5,7.72 -26.09,7.72 -13.33,0 -23.89,-4.11 -31.7,-12.33 -7.81,-8.19 -11.71,-19.73 -11.71,-34.55 0,-15.32 3.93,-27.24 11.83,-35.69 7.9,-8.48 18.14,-12.71 30.73,-12.71 12.18,0 22.13,4.14 29.85,12.45 7.72,8.3 11.59,19.99 11.59,35.04 0,0.91 -0.03,2.29 -0.09,4.11l-68.06 0c0.59,10.01 3.4,17.7 8.51,23.01 5.08,5.31 11.45,7.98 19.05,7.98 5.67,0 10.51,-1.5 14.5,-4.49 4.02,-2.99 7.19,-7.78 9.54,-14.35zm-50.72 -24.83l50.9 0c-0.68,-7.69 -2.64,-13.44 -5.84,-17.29 -4.9,-5.96 -11.3,-8.95 -19.14,-8.95 -7.1,0 -13.06,2.38 -17.9,7.13 -4.82,4.76 -7.48,11.13 -8.01,19.11zm86.15 54.42l0 -91.4 13.91 0 0 14c3.55,-6.49 6.84,-10.77 9.86,-12.83 3.02,-2.08 6.34,-3.11 9.95,-3.11 5.23,0 10.54,1.65 15.94,4.9l-5.52 14.29c-3.76,-2.11 -7.51,-3.17 -11.27,-3.17 -3.37,0 -6.4,1.03 -9.07,3.05 -2.67,2.03 -4.58,4.84 -5.72,8.45 -1.73,5.49 -2.58,11.5 -2.58,18.05l0 47.75 -15.5 0zm107.74 35.04l0 -126.44 14.09 0 0 12c3.32,-4.64 7.07,-8.13 11.27,-10.45 4.17,-2.32 9.25,-3.49 15.2,-3.49 7.81,0 14.68,2 20.63,6.02 5.96,3.99 10.45,9.66 13.5,16.93 3.02,7.31 4.55,15.29 4.55,24.01 0,9.31 -1.67,17.7 -5.02,25.18 -3.35,7.45 -8.22,13.18 -14.62,17.17 -6.37,3.96 -13.09,5.96 -20.13,5.96 -5.16,0 -9.8,-1.09 -13.88,-3.26 -4.11,-2.17 -7.45,-4.9 -10.1,-8.22l0 44.58 -15.5 0zm14.09 -80.19c0,11.71 2.38,20.37 7.1,25.98 4.75,5.61 10.51,8.42 17.26,8.42 6.87,0 12.74,-2.91 17.61,-8.72 4.9,-5.81 7.34,-14.79 7.34,-26.97 0,-11.62 -2.38,-20.31 -7.16,-26.09 -4.78,-5.78 -10.48,-8.66 -17.11,-8.66 -6.58,0 -12.39,3.08 -17.44,9.22 -5.08,6.17 -7.6,15.09 -7.6,26.83zm83.68 45.14l0 -91.4 13.91 0 0 14c3.55,-6.49 6.84,-10.77 9.86,-12.83 3.02,-2.08 6.34,-3.11 9.95,-3.11 5.23,0 10.54,1.65 15.94,4.9l-5.52 14.29c-3.76,-2.11 -7.51,-3.17 -11.27,-3.17 -3.37,0 -6.4,1.03 -9.07,3.05 -2.67,2.03 -4.58,4.84 -5.72,8.45 -1.73,5.49 -2.58,11.5 -2.58,18.05l0 47.75 -15.5 0zm58.82 -108.48l0 -17.61 15.5 0 0 17.61 -15.5 0zm0 108.48l0 -91.4 15.5 0 0 91.4 -15.5 0zm39.12 0l0 -91.4 13.91 0 0 12.97c6.69,-9.95 16.38,-14.91 29.03,-14.91 5.52,0 10.57,1 15.18,2.96 4.61,1.97 8.07,4.58 10.36,7.78 2.29,3.2 3.9,7.01 4.82,11.41 0.56,2.88 0.85,7.9 0.85,15.06l0 56.12 -15.5 0 0 -55.53c0,-6.31 -0.59,-11.04 -1.79,-14.15 -1.2,-3.11 -3.35,-5.61 -6.4,-7.48 -3.05,-1.85 -6.66,-2.79 -10.77,-2.79 -6.58,0 -12.24,2.08 -17.02,6.28 -4.78,4.17 -7.16,12.12 -7.16,23.81l0 49.87 -15.5 0zm131.58 -13.82l2.11 13.68c-4.34,0.91 -8.25,1.38 -11.65,1.38 -5.61,0 -9.95,-0.88 -13.06,-2.67 -3.08,-1.79 -5.26,-4.11 -6.52,-7.01 -1.26,-2.9 -1.88,-9.01 -1.88,-18.31l0 -52.66 -11.45 0 0 -11.97 11.45 0 0 -22.6 15.5 -9.31 0 31.91 15.5 0 0 11.97 -15.5 0 0 53.54c0,4.43 0.27,7.28 0.82,8.54 0.53,1.26 1.41,2.26 2.64,3.02 1.23,0.73 2.99,1.12 5.28,1.12 1.7,0 3.96,-0.21 6.75,-0.62zm146.46 -31.88c0,-16.88 4.7,-29.38 14.12,-37.51 7.84,-6.75 17.43,-10.13 28.74,-10.13 12.53,0 22.81,4.11 30.79,12.33 7.95,8.19 11.94,19.55 11.94,34.02 0,11.74 -1.76,20.96 -5.28,27.68 -3.52,6.72 -8.66,11.94 -15.41,15.67 -6.72,3.73 -14.09,5.58 -22.04,5.58 -12.8,0 -23.13,-4.08 -31.02,-12.27 -7.89,-8.19 -11.83,-19.99 -11.83,-35.37zm15.85 0.03c0,11.68 2.55,20.43 7.66,26.21 5.14,5.81 11.56,8.72 19.34,8.72 7.69,0 14.09,-2.91 19.23,-8.75 5.11,-5.84 7.66,-14.74 7.66,-26.68 0,-11.27 -2.58,-19.81 -7.72,-25.59 -5.14,-5.81 -11.53,-8.72 -19.17,-8.72 -7.78,0 -14.21,2.88 -19.34,8.66 -5.11,5.78 -7.66,14.5 -7.66,26.15zm87.9 45.67l0 -91.4 13.91 0 0 12.97c6.69,-9.95 16.38,-14.91 29.03,-14.91 5.52,0 10.57,1 15.18,2.96 4.61,1.97 8.07,4.58 10.36,7.78 2.29,3.2 3.9,7.01 4.82,11.41 0.56,2.88 0.85,7.9 0.85,15.06l0 56.12 -15.5 0 0 -55.53c0,-6.31 -0.59,-11.04 -1.79,-14.15 -1.2,-3.11 -3.35,-5.61 -6.4,-7.48 -3.05,-1.85 -6.66,-2.79 -10.77,-2.79 -6.58,0 -12.24,2.08 -17.02,6.28 -4.78,4.17 -7.16,12.12 -7.16,23.81l0 49.87 -15.5 0zm97.59 0l0 -126.09 15.5 0 0 126.09 -15.5 0zm39.47 -108.48l0 -17.61 15.5 0 0 17.61 -15.5 0zm0 108.48l0 -91.4 15.5 0 0 91.4 -15.5 0zm39.12 0l0 -91.4 13.91 0 0 12.97c6.69,-9.95 16.38,-14.91 29.03,-14.91 5.52,0 10.57,1 15.18,2.96 4.61,1.97 8.07,4.58 10.36,7.78 2.29,3.2 3.9,7.01 4.82,11.41 0.56,2.88 0.85,7.9 0.85,15.06l0 56.12 -15.5 0 0 -55.53c0,-6.31 -0.59,-11.04 -1.79,-14.15 -1.2,-3.11 -3.35,-5.61 -6.4,-7.48 -3.05,-1.85 -6.66,-2.79 -10.77,-2.79 -6.58,0 -12.24,2.08 -17.02,6.28 -4.78,4.17 -7.16,12.12 -7.16,23.81l0 49.87 -15.5 0zm160.29 -29.58l16.02 2.11c-2.49,9.3 -7.16,16.55 -13.97,21.69 -6.81,5.14 -15.5,7.72 -26.09,7.72 -13.33,0 -23.89,-4.11 -31.7,-12.33 -7.81,-8.19 -11.71,-19.73 -11.71,-34.55 0,-15.32 3.93,-27.24 11.83,-35.69 7.9,-8.48 18.14,-12.71 30.73,-12.71 12.18,0 22.13,4.14 29.85,12.45 7.72,8.3 11.59,19.99 11.59,35.04 0,0.91 -0.03,2.29 -0.09,4.11l-68.06 0c0.59,10.01 3.4,17.7 8.51,23.01 5.08,5.31 11.45,7.98 19.05,7.98 5.67,0 10.51,-1.5 14.5,-4.49 4.02,-2.99 7.19,-7.78 9.54,-14.35zm-50.72 -24.83l50.9 0c-0.68,-7.69 -2.64,-13.44 -5.84,-17.29 -4.9,-5.96 -11.3,-8.95 -19.14,-8.95 -7.1,0 -13.06,2.38 -17.9,7.13 -4.82,4.76 -7.48,11.13 -8.01,19.11zm151.68 54.42l-27.62 -91.4 16.2 0 14.59 52.74 5.17 19.64c0.2,-0.97 1.79,-7.25 4.72,-18.84l14.47 -53.54 15.88 0 13.77 53.07 4.49 17.4 5.25 -17.64 15.79 -52.83 15.06 0 -28.68 91.4 -16.02 0 -14.5 -54.68 -3.67 -15.64 -18.49 70.32 -16.41 0zm110.74 -108.48l0 -17.61 15.5 0 0 17.61 -15.5 0zm0 108.48l0 -91.4 15.5 0 0 91.4 -15.5 0zm72.76 -13.82l2.11 13.68c-4.34,0.91 -8.25,1.38 -11.65,1.38 -5.61,0 -9.95,-0.88 -13.06,-2.67 -3.08,-1.79 -5.26,-4.11 -6.52,-7.01 -1.26,-2.9 -1.88,-9.01 -1.88,-18.31l0 -52.66 -11.45 0 0 -11.97 11.45 0 0 -22.6 15.5 -9.31 0 31.91 15.5 0 0 11.97 -15.5 0 0 53.54c0,4.43 0.27,7.28 0.82,8.54 0.53,1.26 1.41,2.26 2.64,3.02 1.23,0.73 2.99,1.12 5.28,1.12 1.7,0 3.96,-0.21 6.75,-0.62zm15.29 13.82l0 -126.09 15.5 0 0 45.38c7.19,-8.42 16.26,-12.62 27.24,-12.62 6.72,0 12.56,1.32 17.55,3.99 4.96,2.67 8.51,6.34 10.66,11.04 2.14,4.7 3.2,11.53 3.2,20.46l0 57.85 -15.5 0 0 -57.79c0,-7.72 -1.68,-13.36 -4.99,-16.88 -3.35,-3.52 -8.04,-5.28 -14.15,-5.28 -4.55,0 -8.83,1.17 -12.85,3.55 -4.02,2.38 -6.87,5.61 -8.6,9.69 -1.7,4.05 -2.55,9.66 -2.55,16.82l0 49.9 -15.5 0zm209.21 -29.58l16.02 2.11c-2.49,9.3 -7.16,16.55 -13.97,21.69 -6.81,5.14 -15.5,7.72 -26.09,7.72 -13.33,0 -23.89,-4.11 -31.7,-12.33 -7.81,-8.19 -11.71,-19.73 -11.71,-34.55 0,-15.32 3.93,-27.24 11.83,-35.69 7.9,-8.48 18.14,-12.71 30.73,-12.71 12.18,0 22.13,4.14 29.85,12.45 7.72,8.3 11.59,19.99 11.59,35.04 0,0.91 -0.03,2.29 -0.09,4.11l-68.06 0c0.59,10.01 3.4,17.7 8.51,23.01 5.08,5.31 11.45,7.98 19.05,7.98 5.67,0 10.51,-1.5 14.5,-4.49 4.02,-2.99 7.19,-7.78 9.54,-14.35zm-50.72 -24.83l50.9 0c-0.68,-7.69 -2.64,-13.44 -5.84,-17.29 -4.9,-5.96 -11.3,-8.95 -19.14,-8.95 -7.1,0 -13.06,2.38 -17.9,7.13 -4.82,4.76 -7.48,11.13 -8.01,19.11zm146.02 42.97c-5.75,4.9 -11.3,8.34 -16.61,10.36 -5.31,2.03 -11.01,3.02 -17.11,3.02 -10.04,0 -17.76,-2.44 -23.16,-7.34 -5.4,-4.87 -8.1,-11.13 -8.1,-18.73 0,-4.46 1.03,-8.54 3.05,-12.24 2.06,-3.7 4.72,-6.63 8.01,-8.86 3.32,-2.23 7.01,-3.93 11.16,-5.08 3.05,-0.79 7.66,-1.56 13.79,-2.32 12.5,-1.47 21.75,-3.26 27.65,-5.31 0.06,-2.11 0.09,-3.46 0.09,-4.02 0,-6.28 -1.47,-10.71 -4.4,-13.3 -3.96,-3.49 -9.86,-5.22 -17.67,-5.22 -7.31,0 -12.71,1.29 -16.17,3.84 -3.49,2.55 -6.05,7.07 -7.72,13.59l-15.15 -2.11c1.38,-6.49 3.64,-11.74 6.81,-15.73 3.17,-3.99 7.75,-7.04 13.74,-9.22 5.96,-2.15 12.91,-3.23 20.78,-3.23 7.81,0 14.18,0.91 19.08,2.76 4.87,1.85 8.48,4.14 10.77,6.92 2.29,2.79 3.9,6.31 4.84,10.57 0.5,2.64 0.76,7.39 0.76,14.23l0 20.55c0,14.35 0.32,23.42 0.97,27.27 0.62,3.84 1.91,7.51 3.79,11.04l-16.2 0c-1.56,-3.26 -2.55,-7.07 -2.99,-11.45zm-1.23 -34.34c-5.64,2.29 -14.09,4.22 -25.36,5.81 -6.4,0.91 -10.92,1.94 -13.56,3.08 -2.64,1.14 -4.67,2.81 -6.11,4.99 -1.44,2.2 -2.17,4.64 -2.17,7.33 0,4.08 1.56,7.51 4.7,10.25 3.14,2.73 7.72,4.11 13.74,4.11 5.96,0 11.27,-1.29 15.94,-3.9 4.64,-2.58 8.07,-6.14 10.24,-10.63 1.67,-3.49 2.49,-8.63 2.49,-15.41l0.09 -5.63zm33.31 18.49l15.32 -2.46c0.85,6.13 3.26,10.83 7.19,14.12 3.93,3.26 9.45,4.9 16.49,4.9 7.13,0 12.41,-1.44 15.88,-4.34 3.43,-2.88 5.17,-6.28 5.17,-10.19 0,-3.49 -1.56,-6.25 -4.64,-8.25 -2.17,-1.38 -7.45,-3.11 -15.85,-5.25 -11.33,-2.85 -19.17,-5.31 -23.57,-7.4 -4.37,-2.11 -7.69,-4.99 -9.95,-8.69 -2.26,-3.67 -3.4,-7.75 -3.4,-12.21 0,-4.08 0.94,-7.84 2.79,-11.3 1.88,-3.46 4.4,-6.34 7.6,-8.63 2.41,-1.76 5.7,-3.26 9.83,-4.49 4.17,-1.24 8.6,-1.85 13.36,-1.85 7.16,0 13.44,1.03 18.84,3.11 5.43,2.06 9.42,4.87 12,8.4 2.55,3.55 4.34,8.28 5.31,14.21l-15.15 2.11c-0.68,-4.76 -2.67,-8.48 -5.96,-11.16 -3.29,-2.67 -7.92,-3.99 -13.94,-3.99 -7.07,0 -12.15,1.18 -15.18,3.52 -3.02,2.34 -4.55,5.11 -4.55,8.25 0,2 0.62,3.81 1.88,5.43 1.26,1.64 3.23,3.02 5.93,4.11 1.56,0.59 6.08,1.91 13.65,3.96 10.92,2.9 18.55,5.31 22.89,7.16 4.34,1.85 7.75,4.58 10.21,8.1 2.49,3.55 3.73,7.95 3.73,13.24 0,5.14 -1.5,9.98 -4.52,14.53 -3.02,4.55 -7.36,8.07 -13.03,10.57 -5.7,2.49 -12.12,3.73 -19.28,3.73 -11.86,0 -20.93,-2.47 -27.15,-7.37 -6.23,-4.93 -10.19,-12.21 -11.92,-21.87zm156.56 -2.29l16.02 2.11c-2.49,9.3 -7.16,16.55 -13.97,21.69 -6.81,5.14 -15.5,7.72 -26.09,7.72 -13.33,0 -23.89,-4.11 -31.7,-12.33 -7.81,-8.19 -11.71,-19.73 -11.71,-34.55 0,-15.32 3.93,-27.24 11.83,-35.69 7.9,-8.48 18.14,-12.71 30.73,-12.71 12.18,0 22.13,4.14 29.85,12.45 7.72,8.3 11.59,19.99 11.59,35.04 0,0.91 -0.03,2.29 -0.09,4.11l-68.06 0c0.59,10.01 3.4,17.7 8.51,23.01 5.08,5.31 11.45,7.98 19.05,7.98 5.67,0 10.51,-1.5 14.5,-4.49 4.02,-2.99 7.19,-7.78 9.54,-14.35zm-50.72 -24.83l50.9 0c-0.68,-7.69 -2.64,-13.44 -5.84,-17.29 -4.9,-5.96 -11.3,-8.95 -19.14,-8.95 -7.1,0 -13.06,2.38 -17.9,7.13 -4.82,4.76 -7.48,11.13 -8.01,19.11zm94.6 23.07l-4.75 -66.8 0 -27.94 19.2 0 0 27.94 -4.4 66.8 -10.04 0zm-4.05 31.35l0 -17.61 17.79 0 0 17.61 -17.79 0zm-1410.3 -27.3l15.32 -2.46c0.85,6.13 3.26,10.83 7.19,14.12 3.93,3.26 9.45,4.9 16.49,4.9 7.13,0 12.41,-1.44 15.88,-4.34 3.43,-2.88 5.17,-6.28 5.17,-10.19 0,-3.49 -1.56,-6.25 -4.64,-8.25 -2.17,-1.38 -7.45,-3.11 -15.85,-5.25 -11.33,-2.85 -19.17,-5.31 -23.57,-7.4 -4.37,-2.11 -7.69,-4.99 -9.95,-8.69 -2.26,-3.67 -3.4,-7.75 -3.4,-12.21 0,-4.08 0.94,-7.84 2.79,-11.3 1.88,-3.46 4.4,-6.34 7.6,-8.63 2.41,-1.76 5.7,-3.26 9.83,-4.49 4.17,-1.24 8.6,-1.85 13.36,-1.85 7.16,0 13.44,1.03 18.84,3.11 5.43,2.06 9.42,4.87 12,8.4 2.55,3.55 4.34,8.28 5.31,14.21l-15.15 2.11c-0.68,-4.76 -2.67,-8.48 -5.96,-11.16 -3.29,-2.67 -7.92,-3.99 -13.94,-3.99 -7.07,0 -12.15,1.18 -15.18,3.52 -3.02,2.34 -4.55,5.11 -4.55,8.25 0,2 0.62,3.81 1.88,5.43 1.26,1.64 3.23,3.02 5.93,4.11 1.56,0.59 6.08,1.91 13.65,3.96 10.92,2.9 18.55,5.31 22.89,7.16 4.34,1.85 7.75,4.58 10.21,8.1 2.49,3.55 3.73,7.95 3.73,13.24 0,5.14 -1.5,9.98 -4.52,14.53 -3.02,4.55 -7.36,8.07 -13.03,10.57 -5.7,2.49 -12.12,3.73 -19.28,3.73 -11.86,0 -20.93,-2.47 -27.15,-7.37 -6.23,-4.93 -10.19,-12.21 -11.92,-21.87z"/>
  </g>
 </g>
</svg>
